<?xml version="1.0" encoding="UTF-8" standalone="no"?>
<!-- Created with Inkscape (http://www.inkscape.org/) -->

<svg
   xmlns:dc="http://purl.org/dc/elements/1.1/"
   xmlns:cc="http://creativecommons.org/ns#"
   xmlns:rdf="http://www.w3.org/1999/02/22-rdf-syntax-ns#"
   xmlns:svg="http://www.w3.org/2000/svg"
   xmlns="http://www.w3.org/2000/svg"
   xmlns:sodipodi="http://sodipodi.sourceforge.net/DTD/sodipodi-0.dtd"
   xmlns:inkscape="http://www.inkscape.org/namespaces/inkscape"
   width="173.70622mm"
   height="165.93658mm"
   viewBox="0 0 615.49449 587.96427"
   id="svg2"
   version="1.1"
   inkscape:version="0.91 r13725"
   sodipodi:docname="OO-Code-Structure.svg">
  <defs
     id="defs4" />
  <sodipodi:namedview
     id="base"
     pagecolor="#ffffff"
     bordercolor="#666666"
     borderopacity="1.0"
     inkscape:pageopacity="0.0"
     inkscape:pageshadow="2"
     inkscape:zoom="0.7"
     inkscape:cx="184.95747"
     inkscape:cy="447.16967"
     inkscape:document-units="px"
     inkscape:current-layer="layer1"
     showgrid="false"
     fit-margin-top="0"
     fit-margin-left="0"
     fit-margin-right="0"
     fit-margin-bottom="0"
     inkscape:window-width="1920"
     inkscape:window-height="1000"
     inkscape:window-x="0"
     inkscape:window-y="27"
     inkscape:window-maximized="1" />
  <metadata
     id="metadata7">
    <rdf:RDF>
      <cc:Work
         rdf:about="">
        <dc:format>image/svg+xml</dc:format>
        <dc:type
           rdf:resource="http://purl.org/dc/dcmitype/StillImage" />
        <dc:title></dc:title>
      </cc:Work>
    </rdf:RDF>
  </metadata>
  <g
     inkscape:label="Layer 1"
     inkscape:groupmode="layer"
     id="layer1"
     transform="translate(-1522.9671,-611.9418)">
    <g
       transform="matrix(1.25,0,0,-1.25,1442.3421,1003.8168)"
       id="g3367">
      <text
         id="text3369"
         style="font-variant:normal;font-weight:bold;font-size:12px;font-family:Times;-inkscape-font-specification:Times-Bold;writing-mode:lr-tb;fill:#000000;fill-opacity:1;fill-rule:nonzero;stroke:none"
         transform="matrix(1,0,0,-1,100.886,301)">
        <tspan
           id="tspan3371"
           sodipodi:role="line"
           y="0"
           x="0 8.6639996 13.332 17.327999 22.656 28.656 33.984001 39.984001 43.98">Astrocyte</tspan>
      </text>
      <text
         id="text3373"
         style="font-variant:normal;font-weight:normal;font-size:12px;font-family:Times;-inkscape-font-specification:Times-Roman;writing-mode:lr-tb;fill:#000000;fill-opacity:1;fill-rule:nonzero;stroke:none"
         transform="matrix(1,0,0,-1,69.0005,285)">
        <tspan
           id="tspan3375"
           sodipodi:role="line"
           y="0"
           x="0 5.3280001 11.328 16.656 22.656 25.992001 31.32">enabled</tspan>
        <tspan
           id="tspan3377"
           sodipodi:role="line"
           y="12"
           x="0 3.336 9.3360004 15.336 21.336 27.336 33.335999">idx_out</tspan>
        <tspan
           id="tspan3379"
           sodipodi:role="line"
           y="24"
           x="0 3.336 9.3360004 15.336 20.664">index</tspan>
        <tspan
           id="tspan3381"
           sodipodi:role="line"
           y="36"
           x="0 6 12 18 24">n_out</tspan>
        <tspan
           id="tspan3383"
           sodipodi:role="line"
           y="48"
           x="0 6 11.328 15.324 20.652 29.988001">params</tspan>
        <tspan
           id="tspan3385"
           sodipodi:role="line"
           y="60"
           x="0 6">u0</tspan>
        <tspan
           id="tspan3387"
           sodipodi:role="line"
           y="76"
           x="0 6.7680001 15.432 20.1 23.436001 27.431999 33.431999 38.759998 44.759998 48.096001 53.424 56.424 60.419998 63.419998 69.419998 74.748001 78.744003 84.071999 88.068001 94.068001 97.403999 103.404 106.404">+Astrocyte ( varargin )</tspan>
        <tspan
           id="tspan3389"
           sodipodi:role="line"
           y="88"
           x="0 6.7680001 10.764 14.1 20.1 26.1 32.099998 36.096001 39.431999 42.431999 46.428001 49.428001 52.764 55.764">+flux_ft ( t )</tspan>
        <tspan
           id="tspan3391"
           sodipodi:role="line"
           y="100"
           x="0 6.7680001 10.104 16.104 22.104 28.104 31.440001 37.439999 41.436001 44.436001 48.431999 51.431999 54.768002 57.768002">+input_f ( t )</tspan>
        <tspan
           id="tspan3393"
           sodipodi:role="line"
           y="112"
           x="0 6.7680001 10.104 16.104 22.104 28.104 31.440001 37.439999 41.436001 47.436001 53.436001 56.436001 60.431999 63.431999 66.767998 69.767998">+input_rho ( t )</tspan>
        <tspan
           id="tspan3395"
           sodipodi:role="line"
           y="124"
           x="0 6.7680001 10.764 16.764 21.431999 24.431999 28.427999 31.427999 34.764 37.764 40.764 46.764 49.764 52.764 57.431999 63.431999 72.096001 76.092003 84.096001 90.096001 93.431999 96.431999">+rhs ( t, u, J_KIR_i )</tspan>
        <tspan
           id="tspan3397"
           sodipodi:role="line"
           y="136"
           x="0 6.7680001 11.436 17.436001 22.764 26.76 32.088001 38.088001 41.088001 45.084 48.084 54.576 57.576 60.576 66.575996 69.575996">+shared ( ~, u )</tspan>
        <tspan
           id="tspan3399"
           sodipodi:role="line"
           y="148"
           x="0 6.7680001 12.768 18.096001 22.091999 28.091999 33.419998 42.756001 48.084 52.751999 55.751999 59.748001 62.748001">+varnames ( )</tspan>
      </text>
    </g>
    <path
       inkscape:connector-curvature="0"
       id="path3401"
       style="fill:none;stroke:#000000;stroke-width:1.25;stroke-linecap:butt;stroke-linejoin:miter;stroke-miterlimit:10;stroke-dasharray:none;stroke-opacity:1"
       d="m 1523.5921,842.5668 155.845,0 0,-230 -155.845,0 0,230 z" />
    <g
       transform="matrix(1.25,0,0,-1.25,1396.6273,1285.5312)"
       id="g3403">
      <text
         id="text3405"
         style="font-variant:normal;font-weight:bold;font-size:12px;font-family:Times;-inkscape-font-specification:Times-Bold;writing-mode:lr-tb;fill:#000000;fill-opacity:1;fill-rule:nonzero;stroke:none"
         transform="matrix(1,0,0,-1,336.019,301)">
        <tspan
           id="tspan3407"
           sodipodi:role="line"
           y="0"
           x="0 8.6639996 17.327999">NVU</tspan>
      </text>
      <text
         id="text3409"
         style="font-variant:normal;font-weight:normal;font-size:12px;font-family:Times;-inkscape-font-specification:Times-Roman;writing-mode:lr-tb;fill:#000000;fill-opacity:1;fill-rule:nonzero;stroke:none"
         transform="matrix(1,0,0,-1,243.6764,285)">
        <tspan
           id="tspan3411"
           sodipodi:role="line"
           y="0"
           x="0 5.3280001 9.9960003 13.332 17.327999 23.327999 28.656 34.655998 37.992001">astrocyte</tspan>
        <tspan
           id="tspan3413"
           sodipodi:role="line"
           y="12"
           x="0 3.336 9.3360004 14.664 19.332001 22.667999 26.664 32.664001 37.992001 43.992001 47.327999">i_astrocyte</tspan>
        <tspan
           id="tspan3415"
           sodipodi:role="line"
           y="24"
           x="0 3.336 9.3360004 14.004 23.34 28.667999 33.995998">i_smcec</tspan>
        <tspan
           id="tspan3417"
           sodipodi:role="line"
           y="36"
           x="0 3.336 9.3360004 18 23.327999 26.664">i_wall</tspan>
        <tspan
           id="tspan3419"
           y="48"
           x="0">n</tspan>
        <tspan
           id="tspan3421"
           sodipodi:role="line"
           y="60"
           x="0 6 12 17.327999 23.327999 29.327999 32.664001">odeopts</tspan>
        <tspan
           id="tspan3423"
           sodipodi:role="line"
           y="72"
           x="0 6 9.9960003 13.992 18.66 23.988001 27.323999">offsets</tspan>
        <tspan
           id="tspan3425"
           sodipodi:role="line"
           y="84"
           x="0 6 12 15.336 21.336 27.336 30.672001">outputs</tspan>
        <tspan
           id="tspan3427"
           sodipodi:role="line"
           y="96"
           x="0 4.6680002 14.004 19.332001 24.66">smcec</tspan>
        <tspan
           id="tspan3429"
           y="108"
           x="0">T</tspan>
        <tspan
           id="tspan3431"
           y="120"
           x="0">U</tspan>
        <tspan
           id="tspan3433"
           sodipodi:role="line"
           y="132"
           x="0 6">u0</tspan>
        <tspan
           id="tspan3435"
           sodipodi:role="line"
           y="144"
           x="0 8.6639996 13.992 17.327999">wall</tspan>
        <tspan
           id="tspan3437"
           sodipodi:role="line"
           y="160"
           x="0 6.7680001 15.432 24.096001 32.759998 35.759998 39.756001 42.756001 48.084 52.751999 56.088001 60.084 66.084 71.412003 77.412003 80.748001 86.075996 89.075996 92.075996 100.74 106.068 109.404 112.74 115.74 118.74 123.408 132.744 138.07201 143.39999 148.728 151.728 154.728 160.728 166.056 170.052 175.38 179.37601 185.37601 188.71201 194.71201 197.71201">+NVU ( astrocyte, wall, smcec, varargin )</tspan>
        <tspan
           id="tspan3439"
           sodipodi:role="line"
           y="172"
           x="0 6.7680001 10.104 16.104 19.440001 22.775999 28.775999 34.104 40.104 46.104 52.104 56.771999 59.771999 63.768002 66.767998">+init_conds ( )</tspan>
        <tspan
           id="tspan3441"
           sodipodi:role="line"
           y="184"
           x="0 6.7680001 12.768 18.768 22.104 25.104 29.1 32.099998 35.436001 41.436001 47.436001 53.436001 56.771999 62.771999 67.440002 70.776001 74.772003 77.772003">+out ( input_str )</tspan>
        <tspan
           id="tspan3443"
           sodipodi:role="line"
           y="196"
           x="0 6.7680001 10.764 16.764 21.431999 24.431999 28.427999 31.427999 34.764 37.764 40.764 46.764 49.764">+rhs ( t, u )</tspan>
        <tspan
           id="tspan3445"
           sodipodi:role="line"
           y="208"
           x="0 6.7680001 11.436 14.772 24.108 30.108 33.444 38.771999 42.108002 47.436001 50.436001 54.431999 57.431999">+simulate ( )</tspan>
      </text>
    </g>
    <path
       inkscape:connector-curvature="0"
       id="path3447"
       style="fill:none;stroke:#000000;stroke-width:1.25;stroke-linecap:butt;stroke-linejoin:miter;stroke-miterlimit:10;stroke-dasharray:none;stroke-opacity:1"
       d="m 1696.2223,1199.2811 275.2925,0 0,-305.00002 -275.2925,0 0,305.00002 z" />
    <g
       transform="matrix(1.25,0,0,-1.25,1095.1991,1003.8168)"
       id="g3449">
      <text
         id="text3451"
         style="font-variant:normal;font-weight:bold;font-size:12px;font-family:Times;-inkscape-font-specification:Times-Bold;writing-mode:lr-tb;fill:#000000;fill-opacity:1;fill-rule:nonzero;stroke:none"
         transform="matrix(1,0,0,-1,547.615,301)">
        <tspan
           id="tspan3453"
           sodipodi:role="line"
           y="0"
           x="0 6.6719999 18 26.664 34.667999">SMCEC</tspan>
      </text>
      <text
         id="text3455"
         style="font-variant:normal;font-weight:normal;font-size:12px;font-family:Times;-inkscape-font-specification:Times-Roman;writing-mode:lr-tb;fill:#000000;fill-opacity:1;fill-rule:nonzero;stroke:none"
         transform="matrix(1,0,0,-1,513.9107,285)">
        <tspan
           id="tspan3457"
           sodipodi:role="line"
           y="0"
           x="0 5.3280001 11.328 16.656 22.656 25.992001 31.32">enabled</tspan>
        <tspan
           id="tspan3459"
           sodipodi:role="line"
           y="12"
           x="0 3.336 9.3360004 15.336 21.336 27.336 33.335999">idx_out</tspan>
        <tspan
           id="tspan3461"
           sodipodi:role="line"
           y="24"
           x="0 3.336 9.3360004 15.336 20.664">index</tspan>
        <tspan
           id="tspan3463"
           sodipodi:role="line"
           y="36"
           x="0 6 12 18 24">n_out</tspan>
        <tspan
           id="tspan3465"
           sodipodi:role="line"
           y="48"
           x="0 6 11.328 15.324 20.652 29.988001">params</tspan>
        <tspan
           id="tspan3467"
           sodipodi:role="line"
           y="60"
           x="0 6">u0</tspan>
        <tspan
           id="tspan3469"
           sodipodi:role="line"
           y="76"
           x="0 6.7680001 13.44 24.108 32.112 39.444 47.448002 50.448002 54.444 57.444 63.444 68.772003 72.767998 78.096001 82.092003 88.092003 91.428001 97.428001 100.428">+SMCEC ( varargin )</tspan>
        <tspan
           id="tspan3471"
           sodipodi:role="line"
           y="88"
           x="0 6.7680001 10.764 16.764 21.431999 24.431999 28.427999 31.427999 34.764 37.764 40.764 46.764 49.764 52.764 60.768002 63.768002 66.767998 72.767998 75.767998 78.767998 87.431999 93.431999 99.431999 102.432">+rhs ( t, u, R, h, K_p )</tspan>
        <tspan
           id="tspan3473"
           sodipodi:role="line"
           y="100"
           x="0 6.7680001 11.436 17.436001 22.764 26.76 32.088001 38.088001 41.088001 45.084 48.084 54.576 57.576 60.576 66.575996 69.575996 72.575996 81.239998 87.239998 93.239998 96.239998">+shared ( ~, u, K_p )</tspan>
        <tspan
           id="tspan3475"
           sodipodi:role="line"
           y="112"
           x="0 6.7680001 12.768 18.096001 22.091999 28.091999 33.419998 42.756001 48.084 52.751999 55.751999 59.748001 62.748001">+varnames ( )</tspan>
      </text>
    </g>
    <path
       inkscape:connector-curvature="0"
       id="path3477"
       style="fill:none;stroke:#000000;stroke-width:1.25;stroke-linecap:butt;stroke-linejoin:miter;stroke-miterlimit:10;stroke-dasharray:none;stroke-opacity:1"
       d="m 1732.5878,797.5668 149.3826,0 0,-185 -149.3825,0 0,185 z" />
    <g
       transform="matrix(1.25,0,0,-1.25,1095.1991,1003.8168)"
       id="g3479">
      <text
         id="text3481"
         style="font-variant:normal;font-weight:bold;font-size:12px;font-family:Times;-inkscape-font-specification:Times-Bold;writing-mode:lr-tb;fill:#000000;fill-opacity:1;fill-rule:nonzero;stroke:none"
         transform="matrix(1,0,0,-1,714.552,301)">
        <tspan
           id="tspan3483"
           sodipodi:role="line"
           y="0"
           x="0 12 18 21.336 24.672001 36 41.327999 46.655998 53.327999 59.327999 66 69.335999 74.664001">WallMechanics</tspan>
      </text>
      <text
         id="text3485"
         style="font-variant:normal;font-weight:normal;font-size:12px;font-family:Times;-inkscape-font-specification:Times-Roman;writing-mode:lr-tb;fill:#000000;fill-opacity:1;fill-rule:nonzero;stroke:none"
         transform="matrix(1,0,0,-1,683.4168,285)">
        <tspan
           id="tspan3487"
           sodipodi:role="line"
           y="0"
           x="0 5.3280001 11.328 16.656 22.656 25.992001 31.32">enabled</tspan>
        <tspan
           id="tspan3489"
           sodipodi:role="line"
           y="12"
           x="0 3.336 9.3360004 15.336 21.336 27.336 33.335999">idx_out</tspan>
        <tspan
           id="tspan3491"
           sodipodi:role="line"
           y="24"
           x="0 3.336 9.3360004 15.336 20.664">index</tspan>
        <tspan
           id="tspan3493"
           sodipodi:role="line"
           y="36"
           x="0 6 12 18 24">n_out</tspan>
        <tspan
           id="tspan3495"
           sodipodi:role="line"
           y="48"
           x="0 6 11.328 15.324 20.652 29.988001">params</tspan>
        <tspan
           id="tspan3497"
           sodipodi:role="line"
           y="60"
           x="0 6">u0</tspan>
        <tspan
           id="tspan3499"
           sodipodi:role="line"
           y="76"
           x="0 6.7680001 18.096001 23.424 26.76 30.096001 40.764 46.091999 51.419998 57.419998 62.748001 68.748001 72.084 77.412003 82.080002 85.080002 89.075996 92.075996 98.075996 103.404 107.4 112.728 116.724 122.724 126.06 132.06 135.06">+WallMechanics ( varargin )</tspan>
        <tspan
           id="tspan3501"
           sodipodi:role="line"
           y="88"
           x="0 6.7680001 10.764 16.764 21.431999 24.431999 28.427999 31.427999 34.764 37.764 40.764 46.764 49.764 52.764 60.768002 66.096001 72.096001 75.431999 78.431999">+rhs ( t, u, Ca_i )</tspan>
        <tspan
           id="tspan3503"
           sodipodi:role="line"
           y="100"
           x="0 6.7680001 11.436 17.436001 22.764 26.76 32.088001 38.088001 41.088001 45.084 48.084 54.576 57.576 60.576 66.575996 69.575996">+shared ( ~, u )</tspan>
        <tspan
           id="tspan3505"
           sodipodi:role="line"
           y="112"
           x="0 6.7680001 12.768 18.096001 22.091999 28.091999 33.419998 42.756001 48.084 52.751999 55.751999 59.748001 62.748001">+varnames ( )</tspan>
      </text>
    </g>
    <path
       inkscape:connector-curvature="0"
       id="path3507"
       style="fill:none;stroke:#000000;stroke-width:1.25;stroke-linecap:butt;stroke-linejoin:miter;stroke-miterlimit:10;stroke-dasharray:none;stroke-opacity:1"
       d="m 1944.4704,797.5668 193.3662,0 0,-185 -193.3662,0 0,185 z" />
  </g>
</svg>
