<?xml version="1.0" encoding="UTF-8" standalone="no"?>
<!-- Created with Inkscape (http://www.inkscape.org/) -->

<svg
   xmlns:dc="http://purl.org/dc/elements/1.1/"
   xmlns:cc="http://creativecommons.org/ns#"
   xmlns:rdf="http://www.w3.org/1999/02/22-rdf-syntax-ns#"
   xmlns:svg="http://www.w3.org/2000/svg"
   xmlns="http://www.w3.org/2000/svg"
   xmlns:sodipodi="http://sodipodi.sourceforge.net/DTD/sodipodi-0.dtd"
   xmlns:inkscape="http://www.inkscape.org/namespaces/inkscape"
   id="svg4608"
   version="1.1"
   inkscape:version="0.91 r13725"
   xml:space="preserve"
   width="743.75"
   height="1052.5"
   viewBox="0 0 743.75 1052.5"
   sodipodi:docname="R_change_rate_eva.svg"><metadata
     id="metadata4614"><rdf:RDF><cc:Work
         rdf:about=""><dc:format>image/svg+xml</dc:format><dc:type
           rdf:resource="http://purl.org/dc/dcmitype/StillImage" /><dc:title></dc:title></cc:Work></rdf:RDF></metadata><defs
     id="defs4612"><clipPath
       clipPathUnits="userSpaceOnUse"
       id="clipPath4624"><path
         d="M 1.526e-5,-1.5e-7 1920,-1.5e-7 1920,916.99998 1.526e-5,916.99998 1.526e-5,-1.5e-7 Z"
         id="path4626"
         inkscape:connector-curvature="0" /></clipPath><clipPath
       clipPathUnits="userSpaceOnUse"
       id="clipPath4634"><path
         d="M 1.526e-5,-1.5e-7 1920,-1.5e-7 1920,916.99998 1.526e-5,916.99998 1.526e-5,-1.5e-7 Z"
         id="path4636"
         inkscape:connector-curvature="0" /></clipPath></defs><sodipodi:namedview
     pagecolor="#ffffff"
     bordercolor="#666666"
     borderopacity="1"
     objecttolerance="10"
     gridtolerance="10"
     guidetolerance="10"
     inkscape:pageopacity="0"
     inkscape:pageshadow="2"
     inkscape:window-width="1920"
     inkscape:window-height="1018"
     id="namedview4610"
     showgrid="false"
     inkscape:zoom="3.5876484"
     inkscape:cx="186.75808"
     inkscape:cy="908.95285"
     inkscape:window-x="-8"
     inkscape:window-y="-8"
     inkscape:window-maximized="1"
     inkscape:current-layer="g4618" /><g
     id="g4616"
     inkscape:groupmode="layer"
     inkscape:label="R_change_rate_eva"
     transform="matrix(1.25,0,0,-1.25,0,1052.5)"><g
       id="g4618"
       transform="matrix(0.24,0,0,-0.24,0,842)"><g
         id="g4630"
         transform="matrix(3.1250001,0,0,3.1250001,-1759.375,320.37402)"><g
           id="g4632"
           clip-path="url(#clipPath4634)" /></g><g
         id="g4640"
         transform="matrix(1.0821471,0,0,1.0821471,-85.587786,122.15588)"><path
           d="m 250,816 1488,0 0,-747 -1488,0 0,747 z"
           style="fill:#ffffff;fill-opacity:1;fill-rule:nonzero;stroke:none"
           id="path4642"
           inkscape:connector-curvature="0" /></g><g
         id="g4644"
         transform="matrix(1.0821471,0,0,1.0821471,-85.587786,122.15588)"><path
           d="M 250,816 250,69"
           style="fill:none;stroke:#262626;stroke-width:1;stroke-linecap:square;stroke-linejoin:miter;stroke-miterlimit:10;stroke-dasharray:none;stroke-opacity:0.14901961"
           id="path4646"
           inkscape:connector-curvature="0" /></g><g
         id="g4648"
         transform="matrix(1.0821471,0,0,1.0821471,-85.587786,122.15588)"><path
           d="m 398.79999,816 0,-747"
           style="fill:none;stroke:#262626;stroke-width:1;stroke-linecap:square;stroke-linejoin:miter;stroke-miterlimit:10;stroke-dasharray:none;stroke-opacity:0.14901961"
           id="path4650"
           inkscape:connector-curvature="0" /></g><g
         id="g4652"
         transform="matrix(1.0821471,0,0,1.0821471,-85.587786,122.15588)"><path
           d="m 547.59998,816 0,-747"
           style="fill:none;stroke:#262626;stroke-width:1;stroke-linecap:square;stroke-linejoin:miter;stroke-miterlimit:10;stroke-dasharray:none;stroke-opacity:0.14901961"
           id="path4654"
           inkscape:connector-curvature="0" /></g><g
         id="g4656"
         transform="matrix(1.0821471,0,0,1.0821471,-85.587786,122.15588)"><path
           d="m 696.40002,816 0,-747"
           style="fill:none;stroke:#262626;stroke-width:1;stroke-linecap:square;stroke-linejoin:miter;stroke-miterlimit:10;stroke-dasharray:none;stroke-opacity:0.14901961"
           id="path4658"
           inkscape:connector-curvature="0" /></g><g
         id="g4660"
         transform="matrix(1.0821471,0,0,1.0821471,-85.587786,122.15588)"><path
           d="m 845.20001,816 0,-747"
           style="fill:none;stroke:#262626;stroke-width:1;stroke-linecap:square;stroke-linejoin:miter;stroke-miterlimit:10;stroke-dasharray:none;stroke-opacity:0.14901961"
           id="path4662"
           inkscape:connector-curvature="0" /></g><g
         id="g4664"
         transform="matrix(1.0821471,0,0,1.0821471,-85.587786,122.15588)"><path
           d="M 994,816 994,69"
           style="fill:none;stroke:#262626;stroke-width:1;stroke-linecap:square;stroke-linejoin:miter;stroke-miterlimit:10;stroke-dasharray:none;stroke-opacity:0.14901961"
           id="path4666"
           inkscape:connector-curvature="0" /></g><g
         id="g4668"
         transform="matrix(1.0821471,0,0,1.0821471,-85.587786,122.15588)"><path
           d="m 1142.8,816 0,-747"
           style="fill:none;stroke:#262626;stroke-width:1;stroke-linecap:square;stroke-linejoin:miter;stroke-miterlimit:10;stroke-dasharray:none;stroke-opacity:0.14901961"
           id="path4670"
           inkscape:connector-curvature="0" /></g><g
         id="g4672"
         transform="matrix(1.0821471,0,0,1.0821471,-85.587786,122.15588)"><path
           d="m 1291.6,816 0,-747"
           style="fill:none;stroke:#262626;stroke-width:1;stroke-linecap:square;stroke-linejoin:miter;stroke-miterlimit:10;stroke-dasharray:none;stroke-opacity:0.14901961"
           id="path4674"
           inkscape:connector-curvature="0" /></g><g
         id="g4676"
         transform="matrix(1.0821471,0,0,1.0821471,-85.587786,122.15588)"><path
           d="m 1440.4,816 0,-747"
           style="fill:none;stroke:#262626;stroke-width:1;stroke-linecap:square;stroke-linejoin:miter;stroke-miterlimit:10;stroke-dasharray:none;stroke-opacity:0.14901961"
           id="path4678"
           inkscape:connector-curvature="0" /></g><g
         id="g4680"
         transform="matrix(1.0821471,0,0,1.0821471,-85.587786,122.15588)"><path
           d="m 1589.2,816 0,-747"
           style="fill:none;stroke:#262626;stroke-width:1;stroke-linecap:square;stroke-linejoin:miter;stroke-miterlimit:10;stroke-dasharray:none;stroke-opacity:0.14901961"
           id="path4682"
           inkscape:connector-curvature="0" /></g><g
         id="g4684"
         transform="matrix(1.0821471,0,0,1.0821471,-85.587786,122.15588)"><path
           d="m 1738,816 0,-747"
           style="fill:none;stroke:#262626;stroke-width:1;stroke-linecap:square;stroke-linejoin:miter;stroke-miterlimit:10;stroke-dasharray:none;stroke-opacity:0.14901961"
           id="path4686"
           inkscape:connector-curvature="0" /></g><g
         id="g4688"
         transform="matrix(1.0821471,0,0,1.0821471,-85.587786,122.15588)"><path
           d="M 1738,816 250,816"
           style="fill:none;stroke:#262626;stroke-width:1;stroke-linecap:square;stroke-linejoin:miter;stroke-miterlimit:10;stroke-dasharray:none;stroke-opacity:0.14901961"
           id="path4690"
           inkscape:connector-curvature="0" /></g><g
         id="g4692"
         transform="matrix(1.0821471,0,0,1.0821471,-85.587786,122.15588)"><path
           d="m 1738,722.625 -1488,0"
           style="fill:none;stroke:#262626;stroke-width:1;stroke-linecap:square;stroke-linejoin:miter;stroke-miterlimit:10;stroke-dasharray:none;stroke-opacity:0.14901961"
           id="path4694"
           inkscape:connector-curvature="0" /></g><g
         id="g4696"
         transform="matrix(1.0821471,0,0,1.0821471,-85.587786,122.15588)"><path
           d="m 1738,629.25 -1488,0"
           style="fill:none;stroke:#262626;stroke-width:1;stroke-linecap:square;stroke-linejoin:miter;stroke-miterlimit:10;stroke-dasharray:none;stroke-opacity:0.14901961"
           id="path4698"
           inkscape:connector-curvature="0" /></g><g
         id="g4700"
         transform="matrix(1.0821471,0,0,1.0821471,-85.587786,122.15588)"><path
           d="m 1738,535.875 -1488,0"
           style="fill:none;stroke:#262626;stroke-width:1;stroke-linecap:square;stroke-linejoin:miter;stroke-miterlimit:10;stroke-dasharray:none;stroke-opacity:0.14901961"
           id="path4702"
           inkscape:connector-curvature="0" /></g><g
         id="g4704"
         transform="matrix(1.0821471,0,0,1.0821471,-85.587786,122.15588)"><path
           d="m 1738,442.5 -1488,0"
           style="fill:none;stroke:#262626;stroke-width:1;stroke-linecap:square;stroke-linejoin:miter;stroke-miterlimit:10;stroke-dasharray:none;stroke-opacity:0.14901961"
           id="path4706"
           inkscape:connector-curvature="0" /></g><g
         id="g4708"
         transform="matrix(1.0821471,0,0,1.0821471,-85.587786,122.15588)"><path
           d="m 1738,349.125 -1488,0"
           style="fill:none;stroke:#262626;stroke-width:1;stroke-linecap:square;stroke-linejoin:miter;stroke-miterlimit:10;stroke-dasharray:none;stroke-opacity:0.14901961"
           id="path4710"
           inkscape:connector-curvature="0" /></g><g
         id="g4712"
         transform="matrix(1.0821471,0,0,1.0821471,-85.587786,122.15588)"><path
           d="m 1738,255.75 -1488,0"
           style="fill:none;stroke:#262626;stroke-width:1;stroke-linecap:square;stroke-linejoin:miter;stroke-miterlimit:10;stroke-dasharray:none;stroke-opacity:0.14901961"
           id="path4714"
           inkscape:connector-curvature="0" /></g><g
         id="g4716"
         transform="matrix(1.0821471,0,0,1.0821471,-85.587786,122.15588)"><path
           d="m 1738,162.375 -1488,0"
           style="fill:none;stroke:#262626;stroke-width:1;stroke-linecap:square;stroke-linejoin:miter;stroke-miterlimit:10;stroke-dasharray:none;stroke-opacity:0.14901961"
           id="path4718"
           inkscape:connector-curvature="0" /></g><g
         id="g4720"
         transform="matrix(1.0821471,0,0,1.0821471,-85.587786,122.15588)"><path
           d="M 1738,69 250,69"
           style="fill:none;stroke:#262626;stroke-width:1;stroke-linecap:square;stroke-linejoin:miter;stroke-miterlimit:10;stroke-dasharray:none;stroke-opacity:0.14901961"
           id="path4722"
           inkscape:connector-curvature="0" /></g><g
         id="g4724"
         transform="matrix(0.34628706,0,0,0.34628706,529.23565,44.662576)"><g
           id="g4726"
           transform="matrix(3.1250001,0,0,3.1250001,1346.875,2939.1811)"><text
             style="font-variant:normal;font-weight:normal;font-size:15px;font-family:Helvetica;-inkscape-font-specification:Helvetica;writing-mode:lr-tb;fill:#262626;fill-opacity:1;fill-rule:nonzero;stroke:none"
             id="text4728"
             x="-48.217731"
             y="29.651213"><tspan
               x="-23.197731 -19.027731 -10.687734 -2.3477333 5.9922667 14.332267 19.327267 27.667271 31.837269 35.167271 43.507267"
               sodipodi:role="line"
               id="tspan4730"> generation</tspan></text>
</g></g><g
         id="g4732"
         transform="matrix(1.0821471,0,0,1.0821471,-85.587786,122.15588)"><path
           d="m 250,816 1488,0"
           style="fill:none;stroke:#262626;stroke-width:1;stroke-linecap:square;stroke-linejoin:miter;stroke-miterlimit:10;stroke-dasharray:none;stroke-opacity:1"
           id="path4734"
           inkscape:connector-curvature="0" /></g><g
         id="g4736"
         transform="matrix(1.0821471,0,0,1.0821471,-85.587786,122.15588)"><path
           d="m 250,69 1488,0"
           style="fill:none;stroke:#262626;stroke-width:1;stroke-linecap:square;stroke-linejoin:miter;stroke-miterlimit:10;stroke-dasharray:none;stroke-opacity:1"
           id="path4738"
           inkscape:connector-curvature="0" /></g><g
         id="g4740"
         transform="matrix(1.0821471,0,0,1.0821471,-85.587786,122.15588)"><path
           d="m 250,816 0,-14.88"
           style="fill:none;stroke:#262626;stroke-width:1;stroke-linecap:square;stroke-linejoin:miter;stroke-miterlimit:10;stroke-dasharray:none;stroke-opacity:1"
           id="path4742"
           inkscape:connector-curvature="0" /></g><g
         id="g4744"
         transform="matrix(1.0821471,0,0,1.0821471,-85.587786,122.15588)"><path
           d="m 250,69 0,14.880013"
           style="fill:none;stroke:#262626;stroke-width:1;stroke-linecap:square;stroke-linejoin:miter;stroke-miterlimit:10;stroke-dasharray:none;stroke-opacity:1"
           id="path4746"
           inkscape:connector-curvature="0" /></g><g
         id="g4748"
         transform="matrix(1.0821471,0,0,1.0821471,-85.587786,122.15588)"><path
           d="m 398.79999,816 0,-14.88"
           style="fill:none;stroke:#262626;stroke-width:1;stroke-linecap:square;stroke-linejoin:miter;stroke-miterlimit:10;stroke-dasharray:none;stroke-opacity:1"
           id="path4750"
           inkscape:connector-curvature="0" /></g><g
         id="g4752"
         transform="matrix(1.0821471,0,0,1.0821471,-85.587786,122.15588)"><path
           d="m 398.79999,69 0,14.880013"
           style="fill:none;stroke:#262626;stroke-width:1;stroke-linecap:square;stroke-linejoin:miter;stroke-miterlimit:10;stroke-dasharray:none;stroke-opacity:1"
           id="path4754"
           inkscape:connector-curvature="0" /></g><g
         id="g4756"
         transform="matrix(1.0821471,0,0,1.0821471,-85.587786,122.15588)"><path
           d="m 547.59998,816 0,-14.88"
           style="fill:none;stroke:#262626;stroke-width:1;stroke-linecap:square;stroke-linejoin:miter;stroke-miterlimit:10;stroke-dasharray:none;stroke-opacity:1"
           id="path4758"
           inkscape:connector-curvature="0" /></g><g
         id="g4760"
         transform="matrix(1.0821471,0,0,1.0821471,-85.587786,122.15588)"><path
           d="m 547.59998,69 0,14.880013"
           style="fill:none;stroke:#262626;stroke-width:1;stroke-linecap:square;stroke-linejoin:miter;stroke-miterlimit:10;stroke-dasharray:none;stroke-opacity:1"
           id="path4762"
           inkscape:connector-curvature="0" /></g><g
         id="g4764"
         transform="matrix(1.0821471,0,0,1.0821471,-85.587786,122.15588)"><path
           d="m 696.40002,816 0,-14.88"
           style="fill:none;stroke:#262626;stroke-width:1;stroke-linecap:square;stroke-linejoin:miter;stroke-miterlimit:10;stroke-dasharray:none;stroke-opacity:1"
           id="path4766"
           inkscape:connector-curvature="0" /></g><g
         id="g4768"
         transform="matrix(1.0821471,0,0,1.0821471,-85.587786,122.15588)"><path
           d="m 696.40002,69 0,14.880013"
           style="fill:none;stroke:#262626;stroke-width:1;stroke-linecap:square;stroke-linejoin:miter;stroke-miterlimit:10;stroke-dasharray:none;stroke-opacity:1"
           id="path4770"
           inkscape:connector-curvature="0" /></g><g
         id="g4772"
         transform="matrix(1.0821471,0,0,1.0821471,-85.587786,122.15588)"><path
           d="m 845.20001,816 0,-14.88"
           style="fill:none;stroke:#262626;stroke-width:1;stroke-linecap:square;stroke-linejoin:miter;stroke-miterlimit:10;stroke-dasharray:none;stroke-opacity:1"
           id="path4774"
           inkscape:connector-curvature="0" /></g><g
         id="g4776"
         transform="matrix(1.0821471,0,0,1.0821471,-85.587786,122.15588)"><path
           d="m 845.20001,69 0,14.880013"
           style="fill:none;stroke:#262626;stroke-width:1;stroke-linecap:square;stroke-linejoin:miter;stroke-miterlimit:10;stroke-dasharray:none;stroke-opacity:1"
           id="path4778"
           inkscape:connector-curvature="0" /></g><g
         id="g4780"
         transform="matrix(1.0821471,0,0,1.0821471,-85.587786,122.15588)"><path
           d="m 994,816 0,-14.88"
           style="fill:none;stroke:#262626;stroke-width:1;stroke-linecap:square;stroke-linejoin:miter;stroke-miterlimit:10;stroke-dasharray:none;stroke-opacity:1"
           id="path4782"
           inkscape:connector-curvature="0" /></g><g
         id="g4784"
         transform="matrix(1.0821471,0,0,1.0821471,-85.587786,122.15588)"><path
           d="m 994,69 0,14.880013"
           style="fill:none;stroke:#262626;stroke-width:1;stroke-linecap:square;stroke-linejoin:miter;stroke-miterlimit:10;stroke-dasharray:none;stroke-opacity:1"
           id="path4786"
           inkscape:connector-curvature="0" /></g><g
         id="g4788"
         transform="matrix(1.0821471,0,0,1.0821471,-85.587786,122.15588)"><path
           d="m 1142.8,816 0,-14.88"
           style="fill:none;stroke:#262626;stroke-width:1;stroke-linecap:square;stroke-linejoin:miter;stroke-miterlimit:10;stroke-dasharray:none;stroke-opacity:1"
           id="path4790"
           inkscape:connector-curvature="0" /></g><g
         id="g4792"
         transform="matrix(1.0821471,0,0,1.0821471,-85.587786,122.15588)"><path
           d="m 1142.8,69 0,14.880013"
           style="fill:none;stroke:#262626;stroke-width:1;stroke-linecap:square;stroke-linejoin:miter;stroke-miterlimit:10;stroke-dasharray:none;stroke-opacity:1"
           id="path4794"
           inkscape:connector-curvature="0" /></g><g
         id="g4796"
         transform="matrix(1.0821471,0,0,1.0821471,-85.587786,122.15588)"><path
           d="m 1291.6,816 0,-14.88"
           style="fill:none;stroke:#262626;stroke-width:1;stroke-linecap:square;stroke-linejoin:miter;stroke-miterlimit:10;stroke-dasharray:none;stroke-opacity:1"
           id="path4798"
           inkscape:connector-curvature="0" /></g><g
         id="g4800"
         transform="matrix(1.0821471,0,0,1.0821471,-85.587786,122.15588)"><path
           d="m 1291.6,69 0,14.880013"
           style="fill:none;stroke:#262626;stroke-width:1;stroke-linecap:square;stroke-linejoin:miter;stroke-miterlimit:10;stroke-dasharray:none;stroke-opacity:1"
           id="path4802"
           inkscape:connector-curvature="0" /></g><g
         id="g4804"
         transform="matrix(1.0821471,0,0,1.0821471,-85.587786,122.15588)"><path
           d="m 1440.4,816 0,-14.88"
           style="fill:none;stroke:#262626;stroke-width:1;stroke-linecap:square;stroke-linejoin:miter;stroke-miterlimit:10;stroke-dasharray:none;stroke-opacity:1"
           id="path4806"
           inkscape:connector-curvature="0" /></g><g
         id="g4808"
         transform="matrix(1.0821471,0,0,1.0821471,-85.587786,122.15588)"><path
           d="m 1440.4,69 0,14.880013"
           style="fill:none;stroke:#262626;stroke-width:1;stroke-linecap:square;stroke-linejoin:miter;stroke-miterlimit:10;stroke-dasharray:none;stroke-opacity:1"
           id="path4810"
           inkscape:connector-curvature="0" /></g><g
         id="g4812"
         transform="matrix(1.0821471,0,0,1.0821471,-85.587786,122.15588)"><path
           d="m 1589.2,816 0,-14.88"
           style="fill:none;stroke:#262626;stroke-width:1;stroke-linecap:square;stroke-linejoin:miter;stroke-miterlimit:10;stroke-dasharray:none;stroke-opacity:1"
           id="path4814"
           inkscape:connector-curvature="0" /></g><g
         id="g4816"
         transform="matrix(1.0821471,0,0,1.0821471,-85.587786,122.15588)"><path
           d="m 1589.2,69 0,14.880013"
           style="fill:none;stroke:#262626;stroke-width:1;stroke-linecap:square;stroke-linejoin:miter;stroke-miterlimit:10;stroke-dasharray:none;stroke-opacity:1"
           id="path4818"
           inkscape:connector-curvature="0" /></g><g
         id="g4820"
         transform="matrix(1.0821471,0,0,1.0821471,-85.587786,122.15588)"><path
           d="m 1738,816 0,-14.88"
           style="fill:none;stroke:#262626;stroke-width:1;stroke-linecap:square;stroke-linejoin:miter;stroke-miterlimit:10;stroke-dasharray:none;stroke-opacity:1"
           id="path4822"
           inkscape:connector-curvature="0" /></g><g
         id="g4824"
         transform="matrix(1.0821471,0,0,1.0821471,-85.587786,122.15588)"><path
           d="m 1738,69 0,14.880013"
           style="fill:none;stroke:#262626;stroke-width:1;stroke-linecap:square;stroke-linejoin:miter;stroke-miterlimit:10;stroke-dasharray:none;stroke-opacity:1"
           id="path4826"
           inkscape:connector-curvature="0" /></g><g
         id="g4828"
         transform="matrix(0.34628706,0,0,0.34628706,522.01851,44.392104)"><g
           id="g4830"
           transform="matrix(3.1250001,0,0,3.1250001,-978.12503,2887.0407)"><text
             transform="translate(-3.61499,13.069824)"
             style="font-variant:normal;font-weight:normal;font-size:13px;font-family:Helvetica;-inkscape-font-specification:Helvetica;writing-mode:lr-tb;fill:#262626;fill-opacity:1;fill-rule:nonzero;stroke:none"
             id="text4832"><tspan
               x="0"
               y="0"
               id="tspan4834">0</tspan></text>
</g></g><g
         id="g4836"
         transform="matrix(0.34628706,0,0,0.34628706,518.08629,48.379031)"><g
           id="g4838"
           transform="matrix(3.1250001,0,0,3.1250001,-513.12506,2887.0407)"><text
             transform="translate(-7.22998,13.069824)"
             style="font-variant:normal;font-weight:normal;font-size:13px;font-family:Helvetica;-inkscape-font-specification:Helvetica;writing-mode:lr-tb;fill:#262626;fill-opacity:1;fill-rule:nonzero;stroke:none"
             id="text4840"><tspan
               x="0 7.2280002"
               y="0"
               sodipodi:role="line"
               id="tspan4842">10</tspan></text>
</g></g><g
         id="g4844"
         transform="matrix(0.34628706,0,0,0.34628706,518.08629,48.379031)"><g
           id="g4846"
           transform="matrix(3.1250001,0,0,3.1250001,-48.125086,2887.0407)"><text
             transform="translate(-7.22998,13.069824)"
             style="font-variant:normal;font-weight:normal;font-size:13px;font-family:Helvetica;-inkscape-font-specification:Helvetica;writing-mode:lr-tb;fill:#262626;fill-opacity:1;fill-rule:nonzero;stroke:none"
             id="text4848"><tspan
               x="0 7.2280002"
               y="0"
               sodipodi:role="line"
               id="tspan4850">20</tspan></text>
</g></g><g
         id="g4852"
         transform="matrix(0.34628706,0,0,0.34628706,518.08629,48.379031)"><g
           id="g4854"
           transform="matrix(3.1250001,0,0,3.1250001,416.87508,2887.0407)"><text
             transform="translate(-7.22998,13.069824)"
             style="font-variant:normal;font-weight:normal;font-size:13px;font-family:Helvetica;-inkscape-font-specification:Helvetica;writing-mode:lr-tb;fill:#262626;fill-opacity:1;fill-rule:nonzero;stroke:none"
             id="text4856"><tspan
               x="0 7.2280002"
               y="0"
               sodipodi:role="line"
               id="tspan4858">30</tspan></text>
</g></g><g
         id="g4860"
         transform="matrix(0.34628706,0,0,0.34628706,518.08629,48.379031)"><g
           id="g4862"
           transform="matrix(3.1250001,0,0,3.1250001,881.87505,2887.0407)"><text
             transform="translate(-7.22998,13.069824)"
             style="font-variant:normal;font-weight:normal;font-size:13px;font-family:Helvetica;-inkscape-font-specification:Helvetica;writing-mode:lr-tb;fill:#262626;fill-opacity:1;fill-rule:nonzero;stroke:none"
             id="text4864"><tspan
               x="0 7.2280002"
               y="0"
               sodipodi:role="line"
               id="tspan4866">40</tspan></text>
</g></g><g
         id="g4868"
         transform="matrix(0.34628706,0,0,0.34628706,518.08629,48.379031)"><g
           id="g4870"
           transform="matrix(3.1250001,0,0,3.1250001,1346.875,2887.0407)"><text
             transform="translate(-7.22998,13.069824)"
             style="font-variant:normal;font-weight:normal;font-size:13px;font-family:Helvetica;-inkscape-font-specification:Helvetica;writing-mode:lr-tb;fill:#262626;fill-opacity:1;fill-rule:nonzero;stroke:none"
             id="text4872"><tspan
               x="0 7.2280002"
               y="0"
               sodipodi:role="line"
               id="tspan4874">50</tspan></text>
</g></g><g
         id="g4876"
         transform="matrix(0.34628706,0,0,0.34628706,518.08629,48.379031)"><g
           id="g4878"
           transform="matrix(3.1250001,0,0,3.1250001,1811.8752,2887.0407)"><text
             transform="translate(-7.22998,13.069824)"
             style="font-variant:normal;font-weight:normal;font-size:13px;font-family:Helvetica;-inkscape-font-specification:Helvetica;writing-mode:lr-tb;fill:#262626;fill-opacity:1;fill-rule:nonzero;stroke:none"
             id="text4880"><tspan
               x="0 7.2280002"
               y="0"
               sodipodi:role="line"
               id="tspan4882">60</tspan></text>
</g></g><g
         id="g4884"
         transform="matrix(0.34628706,0,0,0.34628706,518.08629,48.379031)"><g
           id="g4886"
           transform="matrix(3.1250001,0,0,3.1250001,2276.875,2887.0407)"><text
             transform="translate(-7.22998,13.069824)"
             style="font-variant:normal;font-weight:normal;font-size:13px;font-family:Helvetica;-inkscape-font-specification:Helvetica;writing-mode:lr-tb;fill:#262626;fill-opacity:1;fill-rule:nonzero;stroke:none"
             id="text4888"><tspan
               x="0 7.2280002"
               y="0"
               sodipodi:role="line"
               id="tspan4890">70</tspan></text>
</g></g><g
         id="g4892"
         transform="matrix(0.34628706,0,0,0.34628706,518.08629,48.379031)"><g
           id="g4894"
           transform="matrix(3.1250001,0,0,3.1250001,2741.8751,2887.0407)"><text
             transform="translate(-7.22998,13.069824)"
             style="font-variant:normal;font-weight:normal;font-size:13px;font-family:Helvetica;-inkscape-font-specification:Helvetica;writing-mode:lr-tb;fill:#262626;fill-opacity:1;fill-rule:nonzero;stroke:none"
             id="text4896"><tspan
               x="0 7.2280002"
               y="0"
               sodipodi:role="line"
               id="tspan4898">80</tspan></text>
</g></g><g
         id="g4900"
         transform="matrix(0.34628706,0,0,0.34628706,518.08629,48.379031)"><g
           id="g4902"
           transform="matrix(3.1250001,0,0,3.1250001,3206.8749,2887.0407)"><text
             transform="translate(-7.22998,13.069824)"
             style="font-variant:normal;font-weight:normal;font-size:13px;font-family:Helvetica;-inkscape-font-specification:Helvetica;writing-mode:lr-tb;fill:#262626;fill-opacity:1;fill-rule:nonzero;stroke:none"
             id="text4904"><tspan
               x="0 7.2280002"
               y="0"
               sodipodi:role="line"
               id="tspan4906">90</tspan></text>
</g></g><g
         id="g4908"
         transform="matrix(0.34628706,0,0,0.34628706,518.08629,48.379031)"><g
           id="g4910"
           transform="matrix(3.1250001,0,0,3.1250001,3671.8751,2887.0407)"><text
             transform="translate(-10.844971,13.069824)"
             style="font-variant:normal;font-weight:normal;font-size:13px;font-family:Helvetica;-inkscape-font-specification:Helvetica;writing-mode:lr-tb;fill:#262626;fill-opacity:1;fill-rule:nonzero;stroke:none"
             id="text4912"><tspan
               x="0 7.2280002 14.456"
               y="0"
               sodipodi:role="line"
               id="tspan4914">100</tspan></text>
</g></g><g
         id="g4916"
         transform="matrix(0.34628706,0,0,0.34628706,466.98503,9.3562558)"><g
           id="g4918"
           transform="matrix(-1.4e-7,-3.1250001,3.1250001,-1.4e-7,-1063.766,1703.1866)"><text
             transform="translate(-5.41626,-3.786621)"
             style="font-variant:normal;font-weight:normal;font-size:15px;font-family:Helvetica;-inkscape-font-specification:Helvetica;writing-mode:lr-tb;fill:#262626;fill-opacity:1;fill-rule:nonzero;stroke:none"
             id="text4920"><tspan
               x="0"
               y="0"
               id="tspan4922">$R [m]$</tspan></text>
</g></g><g
         id="g4924"
         transform="matrix(0.34628706,0,0,0.34628706,523.66097,11.214483)" /><g
         id="g4932"
         transform="matrix(0.34628706,0,0,0.34628706,526.94588,10.885992)"><g
           id="g4934"
           transform="matrix(3.1250001,0,0,3.1250001,-980.74581,521.21154)"><text
             style="font-variant:normal;font-weight:normal;font-size:13px;font-family:Helvetica;-inkscape-font-specification:Helvetica;writing-mode:lr-tb;fill:#262626;fill-opacity:1;fill-rule:nonzero;stroke:none"
             id="text4936"><tspan
               x="0 7.2280002"
               y="0"
               sodipodi:role="line"
               id="tspan4938">10</tspan></text>
</g><text
           xml:space="preserve"
           style="font-style:normal;font-variant:normal;font-weight:normal;font-stretch:normal;font-size:132.35647583px;line-height:125%;font-family:Arial;-inkscape-font-specification:Arial;text-align:start;letter-spacing:0px;word-spacing:0px;writing-mode:lr-tb;text-anchor:start;fill:#000000;fill-opacity:1;stroke:none;stroke-width:1px;stroke-linecap:butt;stroke-linejoin:miter;stroke-opacity:1"
           x="-988.5838"
           y="573.43597"
           id="text5702"
           sodipodi:linespacing="125%"><tspan
             sodipodi:role="line"
             id="tspan5704"
             x="-988.5838"
             y="573.43597" /></text>
</g><g
         id="g4940"
         transform="matrix(0.34628706,0,0,0.34628706,547.34453,3.4434122)"><g
           id="g4942"
           transform="matrix(3.1250001,0,0,3.1250001,-896.87503,510.99903)"><text
             style="font-variant:normal;font-weight:normal;font-size:11px;font-family:Helvetica;-inkscape-font-specification:Helvetica;writing-mode:lr-tb;fill:#262626;fill-opacity:1;fill-rule:nonzero;stroke:none"
             id="text4944"><tspan
               x="0 3.6630001"
               y="0"
               sodipodi:role="line"
               id="tspan4946">-6</tspan></text>
</g></g><g
         id="g4948"
         transform="matrix(1.0821471,0,0,1.0821471,-85.587786,122.15588)"><path
           d="M 250,816 250,69"
           style="fill:none;stroke:#262626;stroke-width:1;stroke-linecap:square;stroke-linejoin:miter;stroke-miterlimit:10;stroke-dasharray:none;stroke-opacity:1"
           id="path4950"
           inkscape:connector-curvature="0" /></g><g
         id="g4952"
         transform="matrix(1.0821471,0,0,1.0821471,-85.587786,122.15588)"><path
           d="m 1738,816 0,-747"
           style="fill:none;stroke:#262626;stroke-width:1;stroke-linecap:square;stroke-linejoin:miter;stroke-miterlimit:10;stroke-dasharray:none;stroke-opacity:1"
           id="path4954"
           inkscape:connector-curvature="0" /></g><g
         id="g4956"
         transform="matrix(1.0821471,0,0,1.0821471,-85.578116,122.20091)"><path
           d="m 250,816 14.88,0"
           style="fill:none;stroke:#262626;stroke-width:1;stroke-linecap:square;stroke-linejoin:miter;stroke-miterlimit:10;stroke-dasharray:none;stroke-opacity:1"
           id="path4958"
           inkscape:connector-curvature="0" /></g><g
         id="g4960"
         transform="matrix(1.0821471,0,0,1.0821471,-85.587786,122.15588)"><path
           d="m 1738,816 -14.88,0"
           style="fill:none;stroke:#262626;stroke-width:1;stroke-linecap:square;stroke-linejoin:miter;stroke-miterlimit:10;stroke-dasharray:none;stroke-opacity:1"
           id="path4962"
           inkscape:connector-curvature="0" /></g><g
         id="g4964"
         transform="matrix(1.0821471,0,0,1.0821471,-85.587786,122.15588)"><path
           d="m 250,722.625 14.88,0"
           style="fill:none;stroke:#262626;stroke-width:1;stroke-linecap:square;stroke-linejoin:miter;stroke-miterlimit:10;stroke-dasharray:none;stroke-opacity:1"
           id="path4966"
           inkscape:connector-curvature="0" /></g><g
         id="g4968"
         transform="matrix(1.0821471,0,0,1.0821471,-85.587786,122.15588)"><path
           d="m 1738,722.625 -14.88,0"
           style="fill:none;stroke:#262626;stroke-width:1;stroke-linecap:square;stroke-linejoin:miter;stroke-miterlimit:10;stroke-dasharray:none;stroke-opacity:1"
           id="path4970"
           inkscape:connector-curvature="0" /></g><g
         id="g4972"
         transform="matrix(1.0821471,0,0,1.0821471,-85.587786,122.15588)"><path
           d="m 250,629.25 14.88,0"
           style="fill:none;stroke:#262626;stroke-width:1;stroke-linecap:square;stroke-linejoin:miter;stroke-miterlimit:10;stroke-dasharray:none;stroke-opacity:1"
           id="path4974"
           inkscape:connector-curvature="0" /></g><g
         id="g4976"
         transform="matrix(1.0821471,0,0,1.0821471,-85.587786,122.15588)"><path
           d="m 1738,629.25 -14.88,0"
           style="fill:none;stroke:#262626;stroke-width:1;stroke-linecap:square;stroke-linejoin:miter;stroke-miterlimit:10;stroke-dasharray:none;stroke-opacity:1"
           id="path4978"
           inkscape:connector-curvature="0" /></g><g
         id="g4980"
         transform="matrix(1.0821471,0,0,1.0821471,-85.587786,122.15588)"><path
           d="m 250,535.875 14.88,0"
           style="fill:none;stroke:#262626;stroke-width:1;stroke-linecap:square;stroke-linejoin:miter;stroke-miterlimit:10;stroke-dasharray:none;stroke-opacity:1"
           id="path4982"
           inkscape:connector-curvature="0" /></g><g
         id="g4984"
         transform="matrix(1.0821471,0,0,1.0821471,-85.587786,122.15588)"><path
           d="m 1738,535.875 -14.88,0"
           style="fill:none;stroke:#262626;stroke-width:1;stroke-linecap:square;stroke-linejoin:miter;stroke-miterlimit:10;stroke-dasharray:none;stroke-opacity:1"
           id="path4986"
           inkscape:connector-curvature="0" /></g><g
         id="g4988"
         transform="matrix(1.0821471,0,0,1.0821471,-85.587786,122.15588)"><path
           d="m 250,442.5 14.88,0"
           style="fill:none;stroke:#262626;stroke-width:1;stroke-linecap:square;stroke-linejoin:miter;stroke-miterlimit:10;stroke-dasharray:none;stroke-opacity:1"
           id="path4990"
           inkscape:connector-curvature="0" /></g><g
         id="g4992"
         transform="matrix(1.0821471,0,0,1.0821471,-85.587786,122.15588)"><path
           d="m 1738,442.5 -14.88,0"
           style="fill:none;stroke:#262626;stroke-width:1;stroke-linecap:square;stroke-linejoin:miter;stroke-miterlimit:10;stroke-dasharray:none;stroke-opacity:1"
           id="path4994"
           inkscape:connector-curvature="0" /></g><g
         id="g4996"
         transform="matrix(1.0821471,0,0,1.0821471,-85.587786,122.15588)"><path
           d="m 250,349.125 14.88,0"
           style="fill:none;stroke:#262626;stroke-width:1;stroke-linecap:square;stroke-linejoin:miter;stroke-miterlimit:10;stroke-dasharray:none;stroke-opacity:1"
           id="path4998"
           inkscape:connector-curvature="0" /></g><g
         id="g5000"
         transform="matrix(1.0821471,0,0,1.0821471,-85.587786,122.15588)"><path
           d="m 1738,349.125 -14.88,0"
           style="fill:none;stroke:#262626;stroke-width:1;stroke-linecap:square;stroke-linejoin:miter;stroke-miterlimit:10;stroke-dasharray:none;stroke-opacity:1"
           id="path5002"
           inkscape:connector-curvature="0" /></g><g
         id="g5004"
         transform="matrix(1.0821471,0,0,1.0821471,-85.587786,122.15588)"><path
           d="m 250,255.75 14.88,0"
           style="fill:none;stroke:#262626;stroke-width:1;stroke-linecap:square;stroke-linejoin:miter;stroke-miterlimit:10;stroke-dasharray:none;stroke-opacity:1"
           id="path5006"
           inkscape:connector-curvature="0" /></g><g
         id="g5008"
         transform="matrix(1.0821471,0,0,1.0821471,-85.587786,122.15588)"><path
           d="m 1738,255.75 -14.88,0"
           style="fill:none;stroke:#262626;stroke-width:1;stroke-linecap:square;stroke-linejoin:miter;stroke-miterlimit:10;stroke-dasharray:none;stroke-opacity:1"
           id="path5010"
           inkscape:connector-curvature="0" /></g><g
         id="g5012"
         transform="matrix(1.0821471,0,0,1.0821471,-85.587786,122.15588)"><path
           d="m 250,162.375 14.88,0"
           style="fill:none;stroke:#262626;stroke-width:1;stroke-linecap:square;stroke-linejoin:miter;stroke-miterlimit:10;stroke-dasharray:none;stroke-opacity:1"
           id="path5014"
           inkscape:connector-curvature="0" /></g><g
         id="g5016"
         transform="matrix(1.0821471,0,0,1.0821471,-85.587786,122.15588)"><path
           d="m 1738,162.375 -14.88,0"
           style="fill:none;stroke:#262626;stroke-width:1;stroke-linecap:square;stroke-linejoin:miter;stroke-miterlimit:10;stroke-dasharray:none;stroke-opacity:1"
           id="path5018"
           inkscape:connector-curvature="0" /></g><g
         id="g5020"
         transform="matrix(1.0821471,0,0,1.0821471,-85.587786,122.15588)"><path
           d="m 250,69 14.88,0"
           style="fill:none;stroke:#262626;stroke-width:1;stroke-linecap:square;stroke-linejoin:miter;stroke-miterlimit:10;stroke-dasharray:none;stroke-opacity:1"
           id="path5022"
           inkscape:connector-curvature="0" /></g><g
         id="g5024"
         transform="matrix(1.0821471,0,0,1.0821471,-85.587786,122.15588)"><path
           d="m 1738,69 -14.88,0"
           style="fill:none;stroke:#262626;stroke-width:1;stroke-linecap:square;stroke-linejoin:miter;stroke-miterlimit:10;stroke-dasharray:none;stroke-opacity:1"
           id="path5026"
           inkscape:connector-curvature="0" /></g><g
         id="g5028"
         transform="matrix(0.34628706,0,0,0.34628706,490.21288,9.3562556)"><g
           id="g5030"
           transform="matrix(3.1250001,0,0,3.1250001,-994.79168,2870.3741)"><text
             transform="translate(-18.071777,5.394043)"
             style="font-variant:normal;font-weight:normal;font-size:13px;font-family:Helvetica;-inkscape-font-specification:Helvetica;writing-mode:lr-tb;fill:#262626;fill-opacity:1;fill-rule:nonzero;stroke:none"
             id="text5032"><tspan
               x="0 7.2280002 10.842"
               y="0"
               sodipodi:role="line"
               id="tspan5034">5.5</tspan></text>
</g></g><g
         id="g5036"
         transform="matrix(0.34628706,0,0,0.34628706,490.21288,9.3562556)"><g
           id="g5038"
           transform="matrix(3.1250001,0,0,3.1250001,-994.79168,2578.5772)"><text
             transform="translate(-7.22998,5.394043)"
             style="font-variant:normal;font-weight:normal;font-size:13px;font-family:Helvetica;-inkscape-font-specification:Helvetica;writing-mode:lr-tb;fill:#262626;fill-opacity:1;fill-rule:nonzero;stroke:none"
             id="text5040"><tspan
               x="0"
               y="0"
               id="tspan5042">6</tspan></text>
</g></g><g
         id="g5044"
         transform="matrix(0.34628706,0,0,0.34628706,490.21288,9.3562556)"><g
           id="g5046"
           transform="matrix(3.1250001,0,0,3.1250001,-994.79168,2286.7803)"><text
             transform="translate(-18.071777,5.394043)"
             style="font-variant:normal;font-weight:normal;font-size:13px;font-family:Helvetica;-inkscape-font-specification:Helvetica;writing-mode:lr-tb;fill:#262626;fill-opacity:1;fill-rule:nonzero;stroke:none"
             id="text5048"><tspan
               x="0 7.2280002 10.842"
               y="0"
               sodipodi:role="line"
               id="tspan5050">6.5</tspan></text>
</g></g><g
         id="g5052"
         transform="matrix(0.34628706,0,0,0.34628706,490.21288,9.3562556)"><g
           id="g5054"
           transform="matrix(3.1250001,0,0,3.1250001,-994.79168,1994.9834)"><text
             transform="translate(-7.22998,5.394043)"
             style="font-variant:normal;font-weight:normal;font-size:13px;font-family:Helvetica;-inkscape-font-specification:Helvetica;writing-mode:lr-tb;fill:#262626;fill-opacity:1;fill-rule:nonzero;stroke:none"
             id="text5056"><tspan
               x="0"
               y="0"
               id="tspan5058">7</tspan></text>
</g></g><g
         id="g5060"
         transform="matrix(0.34628706,0,0,0.34628706,490.21288,9.3562556)"><g
           id="g5062"
           transform="matrix(3.1250001,0,0,3.1250001,-994.79168,1703.1866)"><text
             transform="translate(-18.071777,5.394043)"
             style="font-variant:normal;font-weight:normal;font-size:13px;font-family:Helvetica;-inkscape-font-specification:Helvetica;writing-mode:lr-tb;fill:#262626;fill-opacity:1;fill-rule:nonzero;stroke:none"
             id="text5064"><tspan
               x="0 7.2280002 10.842"
               y="0"
               sodipodi:role="line"
               id="tspan5066">7.5</tspan></text>
</g></g><g
         id="g5068"
         transform="matrix(0.34628706,0,0,0.34628706,490.21288,9.3562556)"><g
           id="g5070"
           transform="matrix(3.1250001,0,0,3.1250001,-994.79168,1411.3897)"><text
             transform="translate(-7.22998,5.394043)"
             style="font-variant:normal;font-weight:normal;font-size:13px;font-family:Helvetica;-inkscape-font-specification:Helvetica;writing-mode:lr-tb;fill:#262626;fill-opacity:1;fill-rule:nonzero;stroke:none"
             id="text5072"><tspan
               x="0"
               y="0"
               id="tspan5074">8</tspan></text>
</g></g><g
         id="g5076"
         transform="matrix(0.34628706,0,0,0.34628706,490.21288,9.3562556)"><g
           id="g5078"
           transform="matrix(3.1250001,0,0,3.1250001,-994.79168,1119.5928)"><text
             transform="translate(-18.071777,5.394043)"
             style="font-variant:normal;font-weight:normal;font-size:13px;font-family:Helvetica;-inkscape-font-specification:Helvetica;writing-mode:lr-tb;fill:#262626;fill-opacity:1;fill-rule:nonzero;stroke:none"
             id="text5080"><tspan
               x="0 7.2280002 10.842"
               y="0"
               sodipodi:role="line"
               id="tspan5082">8.5</tspan></text>
</g></g><g
         id="g5084"
         transform="matrix(0.34628706,0,0,0.34628706,490.21288,9.3562556)"><g
           id="g5086"
           transform="matrix(3.1250001,0,0,3.1250001,-994.79168,827.79591)"><text
             transform="translate(-7.22998,5.394043)"
             style="font-variant:normal;font-weight:normal;font-size:13px;font-family:Helvetica;-inkscape-font-specification:Helvetica;writing-mode:lr-tb;fill:#262626;fill-opacity:1;fill-rule:nonzero;stroke:none"
             id="text5088"><tspan
               x="0"
               y="0"
               id="tspan5090">9</tspan></text>
</g></g><g
         id="g5092"
         transform="matrix(0.34628706,0,0,0.34628706,490.21288,9.3562556)"><g
           id="g5094"
           transform="matrix(3.1250001,0,0,3.1250001,-994.79168,535.99903)"><text
             transform="translate(-18.071777,5.394043)"
             style="font-variant:normal;font-weight:normal;font-size:13px;font-family:Helvetica;-inkscape-font-specification:Helvetica;writing-mode:lr-tb;fill:#262626;fill-opacity:1;fill-rule:nonzero;stroke:none"
             id="text5096"><tspan
               x="0 7.2280002 10.842"
               y="0"
               sodipodi:role="line"
               id="tspan5098">9.5</tspan></text>
</g></g><g
         id="g5100"
         transform="matrix(1.0821471,0,0,1.0821471,-85.587786,122.15588)"><path
           d="m 264.88,103.15839 14.88001,0 14.87997,0 14.88001,19.19837 14.88,0 14.88001,0 14.88,0 14.88001,-21.48004 14.88,0 14.87998,151.63363 14.88,0 14.88001,-0.37923 14.88,0 14.88001,0 14.88,0 14.87998,0 14.88,0 14.88004,-0.38184 14.87994,0 14.88001,-11.19252 14.88,0 14.88001,0 14.88,0 14.88001,0 14.88,0 14.88,0 14.88001,0 14.88,0 14.87995,0 14.88006,0 14.88001,0 14.87994,0 14.88007,0 14.87994,-1.30105 14.88001,0 14.88,0 14.88001,0 14.88,0 14.88001,0 14.88,0 14.88001,0 14.87994,0 14.88007,0 14.87994,0 14.88001,-0.0822 14.88006,0 14.87995,0 14.88,0 14.88001,-3.36673 14.88,0 14.88,0 14.8799,0 14.8801,0 14.88,0 14.88,0 14.88,-0.0115 14.88,0 14.8799,0 14.88,0 14.8801,0 14.8801,0 14.88,0 14.8798,-0.0491 14.88,0 14.8801,0 14.8801,0 14.88,0 14.8799,0.004 14.88,0 14.88,0 14.88,0 14.88,0 14.88,0 14.88,0 14.88,0 14.88,0 14.88,0 14.88,-0.0569 14.88,0 14.88,0 14.88,0 14.88,0 14.8799,0 14.88,0 14.8801,0 14.8801,0 14.88,0 14.8798,0 14.88,0 14.8801,0 14.8801,0 14.88,0 14.8799,0 14.88,0 14.88,0"
           style="fill:none;stroke:#0072bd;stroke-width:2.66666698;stroke-linecap:square;stroke-linejoin:miter;stroke-miterlimit:10;stroke-dasharray:none;stroke-opacity:1"
           id="path5102"
           inkscape:connector-curvature="0" /></g><g
         id="g5104"
         transform="matrix(1.0821471,0,0,1.0821471,-85.587786,122.15588)"><path
           d="m 264.88,810.27704 14.88001,0 14.87997,0 14.88001,0 14.88,0 14.88001,0 14.88,0 14.88001,0 14.88,0 14.87998,0 14.88,0 14.88001,0 14.88,0 14.88001,0 14.88,0 14.87998,0 14.88,0 14.88004,0 14.87994,0 14.88001,0 14.88,0 14.88001,0 14.88,0 14.88001,0 14.88,0 14.88,0 14.88001,0 14.88,0 14.87995,0 14.88006,0 14.88001,0 14.87994,0 14.88007,0 14.87994,0 14.88001,0 14.88,0 14.88001,0 14.88,0 14.88001,0 14.88,0 14.88001,0 14.87994,0 14.88007,0 14.87994,0 14.88001,0 14.88006,0 14.87995,0 14.88,0 14.88001,0 14.88,0 14.88,0 14.8799,0 14.8801,0 14.88,0 14.88,0 14.88,0 14.88,0 14.8799,0 14.88,0 14.8801,0 14.8801,0 14.88,0 14.8798,0 14.88,0 14.8801,0 14.8801,0 14.88,0 14.8799,0 14.88,0 14.88,0 14.88,0 14.88,0 14.88,0 14.88,0 14.88,0 14.88,0 14.88,0 14.88,0 14.88,0 14.88,0 14.88,0 14.88,0 14.8799,0 14.88,0 14.8801,0 14.8801,0 14.88,0 14.8798,0 14.88,0 14.8801,0 14.8801,0 14.88,0 14.8799,0 14.88,0 14.88,0"
           style="fill:none;stroke:#d95319;stroke-width:2.66666698;stroke-linecap:square;stroke-linejoin:miter;stroke-miterlimit:10;stroke-dasharray:none;stroke-opacity:1"
           id="path5106"
           inkscape:connector-curvature="0" /></g><g
         id="g5144"
         transform="matrix(2.3579708,0,0,2.9107815,-1079.3387,171.19186)"
         style="fill:#ffffff"><path
           d="m 824,156 0,-35 226,0 0,35 -226,0"
           style="fill:#ffffff;stroke:#262626;stroke-width:1;stroke-linecap:square;stroke-linejoin:miter;stroke-miterlimit:10;stroke-dasharray:none;stroke-opacity:1"
           id="path5146"
           inkscape:connector-curvature="0" /></g><g
         id="g5128"
         transform="matrix(1.0821471,0,0,1.0821471,-20.005564,426.20151)"><path
           d="m 838.65081,116.98086 39.86285,0"
           style="fill:none;stroke:#0072bd;stroke-width:2.66666698;stroke-linecap:square;stroke-linejoin:miter;stroke-miterlimit:10;stroke-dasharray:none;stroke-opacity:1"
           id="path5130"
           inkscape:connector-curvature="0" /></g><g
         id="g5140"
         transform="matrix(1.0821471,0,0,1.0821471,-12.121773,436.08359)"><path
           d="m 831.9726,146.0556 39.86285,0"
           style="fill:none;stroke:#d95319;stroke-width:2.66666698;stroke-linecap:square;stroke-linejoin:miter;stroke-miterlimit:10;stroke-dasharray:none;stroke-opacity:1"
           id="path5142"
           inkscape:connector-curvature="0" /></g><text
         xml:space="preserve"
         style="font-style:normal;font-variant:normal;font-weight:normal;font-stretch:normal;font-size:45.83333206px;line-height:125%;font-family:Arial;-inkscape-font-specification:Arial;text-align:start;letter-spacing:0px;word-spacing:0px;writing-mode:lr-tb;text-anchor:start;fill:#000000;fill-opacity:1;stroke:none;stroke-width:1px;stroke-linecap:butt;stroke-linejoin:miter;stroke-opacity:1"
         x="979.5611"
         y="563.7373"
         id="text5694"
         sodipodi:linespacing="125%"><tspan
           sodipodi:role="line"
           id="tspan5696"
           x="979.5611"
           y="563.7373">best organism's R </tspan></text>
<text
         xml:space="preserve"
         style="font-style:normal;font-variant:normal;font-weight:normal;font-stretch:normal;font-size:45.83333206px;line-height:125%;font-family:Arial;-inkscape-font-specification:Arial;text-align:start;letter-spacing:0px;word-spacing:0px;writing-mode:lr-tb;text-anchor:start;fill:#000000;fill-opacity:1;stroke:none;stroke-width:1px;stroke-linecap:butt;stroke-linejoin:miter;stroke-opacity:1"
         x="976.27612"
         y="610.38312"
         id="text5698"
         sodipodi:linespacing="125%"><tspan
           sodipodi:role="line"
           id="tspan5700"
           x="976.27612"
           y="610.38312">inital value</tspan></text>
</g></g></svg>