<?xml version="1.0" encoding="UTF-8" standalone="no"?>
<!-- Created with Inkscape (http://www.inkscape.org/) -->

<svg
   xmlns:osb="http://www.openswatchbook.org/uri/2009/osb"
   xmlns:dc="http://purl.org/dc/elements/1.1/"
   xmlns:cc="http://creativecommons.org/ns#"
   xmlns:rdf="http://www.w3.org/1999/02/22-rdf-syntax-ns#"
   xmlns:svg="http://www.w3.org/2000/svg"
   xmlns="http://www.w3.org/2000/svg"
   xmlns:sodipodi="http://sodipodi.sourceforge.net/DTD/sodipodi-0.dtd"
   xmlns:inkscape="http://www.inkscape.org/namespaces/inkscape"
   id="svg2985"
   version="1.1"
   inkscape:version="0.48.4 r9939"
   width="1800"
   height="578.75"
   xml:space="preserve"
   sodipodi:docname="Timepoints.png"><metadata
     id="metadata2991"><rdf:RDF><cc:Work
         rdf:about=""><dc:format>image/svg+xml</dc:format><dc:type
           rdf:resource="http://purl.org/dc/dcmitype/StillImage" /><dc:title></dc:title></cc:Work></rdf:RDF></metadata><defs
     id="defs2989"><linearGradient
       inkscape:collect="always"
       id="linearGradient4029"
       osb:paint="gradient"><stop
         style="stop-color:#ef0000;stop-opacity:1;"
         offset="0"
         id="stop4031" /><stop
         style="stop-color:#ef0000;stop-opacity:0;"
         offset="1"
         id="stop4033" /></linearGradient><clipPath
       clipPathUnits="userSpaceOnUse"
       id="clipPath3001"><path
         d="m 0,4627.5 14400,0 L 14400,0 0,0 0,4627.5 z"
         id="path3003" /></clipPath></defs><sodipodi:namedview
     pagecolor="#ffffff"
     bordercolor="#666666"
     borderopacity="1"
     objecttolerance="10"
     gridtolerance="10"
     guidetolerance="10"
     inkscape:pageopacity="0"
     inkscape:pageshadow="2"
     inkscape:window-width="1920"
     inkscape:window-height="1018"
     id="namedview2987"
     showgrid="false"
     inkscape:object-paths="true"
     inkscape:snap-intersection-paths="true"
     inkscape:object-nodes="true"
     inkscape:snap-smooth-nodes="true"
     inkscape:snap-midpoints="true"
     inkscape:snap-object-midpoints="false"
     inkscape:snap-bbox="true"
     showguides="true"
     inkscape:guide-bbox="true"
     inkscape:zoom="1.4142136"
     inkscape:cx="301.51764"
     inkscape:cy="293.28605"
     inkscape:window-x="-8"
     inkscape:window-y="-8"
     inkscape:window-maximized="1"
     inkscape:current-layer="g2993"><sodipodi:guide
       orientation="0,1"
       position="857.67263,-177.03703"
       id="guide4111" /><sodipodi:guide
       orientation="0,1"
       position="566.39253,116.17133"
       id="guide5077" /></sodipodi:namedview><g
     id="g2993"
     inkscape:groupmode="layer"
     inkscape:label="ink_ext_XXXXXX"
     transform="matrix(1.25,0,0,-1.25,0,578.75)"><g
       transform="translate(41.512739,93.302546)"
       inkscape:label="ink_ext_XXXXXX"
       id="g4800"><g
         transform="scale(0.1,0.1)"
         id="g4802"><path
           id="path4804"
           style="fill:#ffffff;fill-opacity:1;fill-rule:nonzero;stroke:none"
           d="m 0,0 4200,0 0,3150 L 0,3150 0,0 z"
           inkscape:connector-curvature="0" /><path
           id="path4806"
           style="fill:#ffffff;fill-opacity:1;fill-rule:nonzero;stroke:none"
           d="m 0,0 4200,0 0,3150 L 0,3150 0,0 z"
           inkscape:connector-curvature="0" /><path
           id="path4808"
           style="fill:#ffffff;fill-opacity:1;fill-rule:nonzero;stroke:none"
           d="m 547.5,345 3255,0 0,2572.5 -3255,0 0,-2572.5 z"
           inkscape:connector-curvature="0" /><path
           id="path4810"
           style="fill:none;stroke:#dfdfdf;stroke-width:7.5;stroke-linecap:square;stroke-linejoin:miter;stroke-miterlimit:10;stroke-opacity:1;stroke-dasharray:none"
           d="m 547.5,345 0,2572.5"
           inkscape:connector-curvature="0" /><path
           id="path4812"
           style="fill:none;stroke:#dfdfdf;stroke-width:7.5;stroke-linecap:square;stroke-linejoin:miter;stroke-miterlimit:10;stroke-opacity:1;stroke-dasharray:none"
           d="m 873,345 0,2572.5"
           inkscape:connector-curvature="0" /><path
           id="path4814"
           style="fill:none;stroke:#dfdfdf;stroke-width:7.5;stroke-linecap:square;stroke-linejoin:miter;stroke-miterlimit:10;stroke-opacity:1;stroke-dasharray:none"
           d="m 1198.5,345 0,2572.5"
           inkscape:connector-curvature="0" /><path
           id="path4816"
           style="fill:none;stroke:#dfdfdf;stroke-width:7.5;stroke-linecap:square;stroke-linejoin:miter;stroke-miterlimit:10;stroke-opacity:1;stroke-dasharray:none"
           d="m 1524,345 0,2572.5"
           inkscape:connector-curvature="0" /><path
           id="path4818"
           style="fill:none;stroke:#dfdfdf;stroke-width:7.5;stroke-linecap:square;stroke-linejoin:miter;stroke-miterlimit:10;stroke-opacity:1;stroke-dasharray:none"
           d="m 1849.5,345 0,2572.5"
           inkscape:connector-curvature="0" /><path
           id="path4820"
           style="fill:none;stroke:#dfdfdf;stroke-width:7.5;stroke-linecap:square;stroke-linejoin:miter;stroke-miterlimit:10;stroke-opacity:1;stroke-dasharray:none"
           d="m 2175,345 0,2572.5"
           inkscape:connector-curvature="0" /><path
           id="path4822"
           style="fill:none;stroke:#dfdfdf;stroke-width:7.5;stroke-linecap:square;stroke-linejoin:miter;stroke-miterlimit:10;stroke-opacity:1;stroke-dasharray:none"
           d="m 2500.5,345 0,2572.5"
           inkscape:connector-curvature="0" /><path
           id="path4824"
           style="fill:none;stroke:#dfdfdf;stroke-width:7.5;stroke-linecap:square;stroke-linejoin:miter;stroke-miterlimit:10;stroke-opacity:1;stroke-dasharray:none"
           d="m 2826,345 0,2572.5"
           inkscape:connector-curvature="0" /><path
           id="path4826"
           style="fill:none;stroke:#dfdfdf;stroke-width:7.5;stroke-linecap:square;stroke-linejoin:miter;stroke-miterlimit:10;stroke-opacity:1;stroke-dasharray:none"
           d="m 3151.5,345 0,2572.5"
           inkscape:connector-curvature="0" /><path
           id="path4828"
           style="fill:none;stroke:#dfdfdf;stroke-width:7.5;stroke-linecap:square;stroke-linejoin:miter;stroke-miterlimit:10;stroke-opacity:1;stroke-dasharray:none"
           d="m 3477,345 0,2572.5"
           inkscape:connector-curvature="0" /><path
           id="path4830"
           style="fill:none;stroke:#dfdfdf;stroke-width:7.5;stroke-linecap:square;stroke-linejoin:miter;stroke-miterlimit:10;stroke-opacity:1;stroke-dasharray:none"
           d="m 3802.5,345 0,2572.5"
           inkscape:connector-curvature="0" /><path
           id="path4832"
           style="fill:none;stroke:#dfdfdf;stroke-width:7.5;stroke-linecap:square;stroke-linejoin:miter;stroke-miterlimit:10;stroke-opacity:1;stroke-dasharray:none"
           d="m 3802.5,345 -3255,0"
           inkscape:connector-curvature="0" /><path
           id="path4834"
           style="fill:none;stroke:#dfdfdf;stroke-width:7.5;stroke-linecap:square;stroke-linejoin:miter;stroke-miterlimit:10;stroke-opacity:1;stroke-dasharray:none"
           d="m 3802.5,773.754 -3255,0"
           inkscape:connector-curvature="0" /><path
           id="path4836"
           style="fill:none;stroke:#dfdfdf;stroke-width:7.5;stroke-linecap:square;stroke-linejoin:miter;stroke-miterlimit:10;stroke-opacity:1;stroke-dasharray:none"
           d="m 3802.5,1202.5 -3255,0"
           inkscape:connector-curvature="0" /><path
           id="path4838"
           style="fill:none;stroke:#dfdfdf;stroke-width:7.5;stroke-linecap:square;stroke-linejoin:miter;stroke-miterlimit:10;stroke-opacity:1;stroke-dasharray:none"
           d="m 3802.5,1631.25 -3255,0"
           inkscape:connector-curvature="0" /><path
           id="path4840"
           style="fill:none;stroke:#dfdfdf;stroke-width:7.5;stroke-linecap:square;stroke-linejoin:miter;stroke-miterlimit:10;stroke-opacity:1;stroke-dasharray:none"
           d="m 3802.5,2060 -3255,0"
           inkscape:connector-curvature="0" /><path
           id="path4842"
           style="fill:none;stroke:#dfdfdf;stroke-width:7.5;stroke-linecap:square;stroke-linejoin:miter;stroke-miterlimit:10;stroke-opacity:1;stroke-dasharray:none"
           d="m 3802.5,2488.75 -3255,0"
           inkscape:connector-curvature="0" /><path
           id="path4844"
           style="fill:none;stroke:#dfdfdf;stroke-width:7.5;stroke-linecap:square;stroke-linejoin:miter;stroke-miterlimit:10;stroke-opacity:1;stroke-dasharray:none"
           d="m 3802.5,2917.5 -3255,0"
           inkscape:connector-curvature="0" /><g
           transform="scale(10,10)"
           id="g4846"><text
             id="text4848"
             transform="matrix(1,0,0,-1,198.752,6.67539)"><tspan
               id="tspan4850"
               sodipodi:role="line"
               y="0"
               x="0 3.1275001 5.625 14.99625 21.251249 24.37875 28.125 33.75"
               style="font-size:11.25px;font-variant:normal;font-weight:normal;writing-mode:lr-tb;fill:#262626;fill-opacity:1;fill-rule:nonzero;stroke:none;font-family:Helvetica;-inkscape-font-specification:Helvetica">time (s)</tspan></text>
</g><path
           id="path4852"
           style="fill:none;stroke:#262626;stroke-width:7.5;stroke-linecap:square;stroke-linejoin:miter;stroke-miterlimit:10;stroke-opacity:1;stroke-dasharray:none"
           d="m 547.5,345 3255,0"
           inkscape:connector-curvature="0" /><path
           id="path4854"
           style="fill:none;stroke:#262626;stroke-width:7.5;stroke-linecap:square;stroke-linejoin:miter;stroke-miterlimit:10;stroke-opacity:1;stroke-dasharray:none"
           d="m 547.5,2917.5 3255,0"
           inkscape:connector-curvature="0" /><path
           id="path4856"
           style="fill:none;stroke:#262626;stroke-width:7.5;stroke-linecap:square;stroke-linejoin:miter;stroke-miterlimit:10;stroke-opacity:1;stroke-dasharray:none"
           d="m 547.5,345 0,32.551"
           inkscape:connector-curvature="0" /><path
           id="path4858"
           style="fill:none;stroke:#262626;stroke-width:7.5;stroke-linecap:square;stroke-linejoin:miter;stroke-miterlimit:10;stroke-opacity:1;stroke-dasharray:none"
           d="m 547.5,2917.5 0,-32.55"
           inkscape:connector-curvature="0" /><path
           id="path4860"
           style="fill:none;stroke:#262626;stroke-width:7.5;stroke-linecap:square;stroke-linejoin:miter;stroke-miterlimit:10;stroke-opacity:1;stroke-dasharray:none"
           d="m 873,345 0,32.551"
           inkscape:connector-curvature="0" /><path
           id="path4862"
           style="fill:none;stroke:#262626;stroke-width:7.5;stroke-linecap:square;stroke-linejoin:miter;stroke-miterlimit:10;stroke-opacity:1;stroke-dasharray:none"
           d="m 873,2917.5 0,-32.55"
           inkscape:connector-curvature="0" /><path
           id="path4864"
           style="fill:none;stroke:#262626;stroke-width:7.5;stroke-linecap:square;stroke-linejoin:miter;stroke-miterlimit:10;stroke-opacity:1;stroke-dasharray:none"
           d="m 1198.5,345 0,32.551"
           inkscape:connector-curvature="0" /><path
           id="path4866"
           style="fill:none;stroke:#262626;stroke-width:7.5;stroke-linecap:square;stroke-linejoin:miter;stroke-miterlimit:10;stroke-opacity:1;stroke-dasharray:none"
           d="m 1198.5,2917.5 0,-32.55"
           inkscape:connector-curvature="0" /><path
           id="path4868"
           style="fill:none;stroke:#262626;stroke-width:7.5;stroke-linecap:square;stroke-linejoin:miter;stroke-miterlimit:10;stroke-opacity:1;stroke-dasharray:none"
           d="m 1524,345 0,32.551"
           inkscape:connector-curvature="0" /><path
           id="path4870"
           style="fill:none;stroke:#262626;stroke-width:7.5;stroke-linecap:square;stroke-linejoin:miter;stroke-miterlimit:10;stroke-opacity:1;stroke-dasharray:none"
           d="m 1524,2917.5 0,-32.55"
           inkscape:connector-curvature="0" /><path
           id="path4872"
           style="fill:none;stroke:#262626;stroke-width:7.5;stroke-linecap:square;stroke-linejoin:miter;stroke-miterlimit:10;stroke-opacity:1;stroke-dasharray:none"
           d="m 1849.5,345 0,32.551"
           inkscape:connector-curvature="0" /><path
           id="path4874"
           style="fill:none;stroke:#262626;stroke-width:7.5;stroke-linecap:square;stroke-linejoin:miter;stroke-miterlimit:10;stroke-opacity:1;stroke-dasharray:none"
           d="m 1849.5,2917.5 0,-32.55"
           inkscape:connector-curvature="0" /><path
           id="path4876"
           style="fill:none;stroke:#262626;stroke-width:7.5;stroke-linecap:square;stroke-linejoin:miter;stroke-miterlimit:10;stroke-opacity:1;stroke-dasharray:none"
           d="m 2175,345 0,32.551"
           inkscape:connector-curvature="0" /><path
           id="path4878"
           style="fill:none;stroke:#262626;stroke-width:7.5;stroke-linecap:square;stroke-linejoin:miter;stroke-miterlimit:10;stroke-opacity:1;stroke-dasharray:none"
           d="m 2175,2917.5 0,-32.55"
           inkscape:connector-curvature="0" /><path
           id="path4880"
           style="fill:none;stroke:#262626;stroke-width:7.5;stroke-linecap:square;stroke-linejoin:miter;stroke-miterlimit:10;stroke-opacity:1;stroke-dasharray:none"
           d="m 2500.5,345 0,32.551"
           inkscape:connector-curvature="0" /><path
           id="path4882"
           style="fill:none;stroke:#262626;stroke-width:7.5;stroke-linecap:square;stroke-linejoin:miter;stroke-miterlimit:10;stroke-opacity:1;stroke-dasharray:none"
           d="m 2500.5,2917.5 0,-32.55"
           inkscape:connector-curvature="0" /><path
           id="path4884"
           style="fill:none;stroke:#262626;stroke-width:7.5;stroke-linecap:square;stroke-linejoin:miter;stroke-miterlimit:10;stroke-opacity:1;stroke-dasharray:none"
           d="m 2826,345 0,32.551"
           inkscape:connector-curvature="0" /><path
           id="path4886"
           style="fill:none;stroke:#262626;stroke-width:7.5;stroke-linecap:square;stroke-linejoin:miter;stroke-miterlimit:10;stroke-opacity:1;stroke-dasharray:none"
           d="m 2826,2917.5 0,-32.55"
           inkscape:connector-curvature="0" /><path
           id="path4888"
           style="fill:none;stroke:#262626;stroke-width:7.5;stroke-linecap:square;stroke-linejoin:miter;stroke-miterlimit:10;stroke-opacity:1;stroke-dasharray:none"
           d="m 3151.5,345 0,32.551"
           inkscape:connector-curvature="0" /><path
           id="path4890"
           style="fill:none;stroke:#262626;stroke-width:7.5;stroke-linecap:square;stroke-linejoin:miter;stroke-miterlimit:10;stroke-opacity:1;stroke-dasharray:none"
           d="m 3151.5,2917.5 0,-32.55"
           inkscape:connector-curvature="0" /><path
           id="path4892"
           style="fill:none;stroke:#262626;stroke-width:7.5;stroke-linecap:square;stroke-linejoin:miter;stroke-miterlimit:10;stroke-opacity:1;stroke-dasharray:none"
           d="m 3477,345 0,32.551"
           inkscape:connector-curvature="0" /><path
           id="path4894"
           style="fill:none;stroke:#262626;stroke-width:7.5;stroke-linecap:square;stroke-linejoin:miter;stroke-miterlimit:10;stroke-opacity:1;stroke-dasharray:none"
           d="m 3477,2917.5 0,-32.55"
           inkscape:connector-curvature="0" /><path
           id="path4896"
           style="fill:none;stroke:#262626;stroke-width:7.5;stroke-linecap:square;stroke-linejoin:miter;stroke-miterlimit:10;stroke-opacity:1;stroke-dasharray:none"
           d="m 3802.5,345 0,32.551"
           inkscape:connector-curvature="0" /><path
           id="path4898"
           style="fill:none;stroke:#262626;stroke-width:7.5;stroke-linecap:square;stroke-linejoin:miter;stroke-miterlimit:10;stroke-opacity:1;stroke-dasharray:none"
           d="m 3802.5,2917.5 0,-32.55"
           inkscape:connector-curvature="0" /><g
           transform="scale(10,10)"
           id="g4900"><text
             id="text4902"
             transform="matrix(1,0,0,-1,52.0387,20.6977)"><tspan
               id="tspan4904"
               sodipodi:role="line"
               y="0"
               x="0 29.838705 35.259705 59.677799 65.098801 70.519798 92.227783 97.648788 103.06979 124.77777 130.19878 135.61977 157.32776 162.74875 168.16975 189.87775 195.29874 200.71974 222.42772 227.84872 233.26973 254.97771 260.39871 265.8197 287.52771 292.9487 298.36969 320.07767 325.49869 330.91968"
               style="font-size:9.75px;font-variant:normal;font-weight:normal;writing-mode:lr-tb;fill:#262626;fill-opacity:1;fill-rule:nonzero;stroke:none;font-family:Helvetica;-inkscape-font-specification:Helvetica">050100150200250300350400450500</tspan></text>
<text
             id="text4906"
             transform="matrix(0,1,1,0,34.5,150.75)"><tspan
               id="tspan4908"
               y="0"
               x="0"
               style="font-size:11.25px;font-variant:normal;font-weight:normal;writing-mode:lr-tb;fill:#262626;fill-opacity:1;fill-rule:nonzero;stroke:none;font-family:Helvetica;-inkscape-font-specification:Helvetica">(</tspan></text>
<text
             id="text4910"
             transform="matrix(0,1,1,0,34.5,154.5)"><tspan
               id="tspan4912"
               y="0"
               x="0"
               style="font-size:11.25px;font-variant:normal;font-weight:normal;writing-mode:lr-tb;fill:#262626;fill-opacity:1;fill-rule:nonzero;stroke:none;font-family:mwb_cmmi10;-inkscape-font-specification:mwb_cmmi10">µ</tspan></text>
<text
             id="text4914"
             transform="matrix(0,1,1,0,34.5,162)"><tspan
               id="tspan4916"
               sodipodi:role="line"
               y="0"
               x="0 9.3712502"
               style="font-size:11.25px;font-variant:normal;font-weight:normal;writing-mode:lr-tb;fill:#262626;fill-opacity:1;fill-rule:nonzero;stroke:none;font-family:Helvetica;-inkscape-font-specification:Helvetica">m)</tspan></text>
</g><path
           id="path4918"
           style="fill:none;stroke:#262626;stroke-width:7.5;stroke-linecap:square;stroke-linejoin:miter;stroke-miterlimit:10;stroke-opacity:1;stroke-dasharray:none"
           d="m 547.5,345 0,2572.5"
           inkscape:connector-curvature="0" /><path
           id="path4920"
           style="fill:none;stroke:#262626;stroke-width:7.5;stroke-linecap:square;stroke-linejoin:miter;stroke-miterlimit:10;stroke-opacity:1;stroke-dasharray:none"
           d="m 3802.5,345 0,2572.5"
           inkscape:connector-curvature="0" /><path
           id="path4922"
           style="fill:none;stroke:#262626;stroke-width:7.5;stroke-linecap:square;stroke-linejoin:miter;stroke-miterlimit:10;stroke-opacity:1;stroke-dasharray:none"
           d="m 547.5,345 32.551,0"
           inkscape:connector-curvature="0" /><path
           id="path4924"
           style="fill:none;stroke:#262626;stroke-width:7.5;stroke-linecap:square;stroke-linejoin:miter;stroke-miterlimit:10;stroke-opacity:1;stroke-dasharray:none"
           d="m 3802.5,345 -32.55,0"
           inkscape:connector-curvature="0" /><path
           id="path4926"
           style="fill:none;stroke:#262626;stroke-width:7.5;stroke-linecap:square;stroke-linejoin:miter;stroke-miterlimit:10;stroke-opacity:1;stroke-dasharray:none"
           d="m 547.5,773.754 32.551,0"
           inkscape:connector-curvature="0" /><path
           id="path4928"
           style="fill:none;stroke:#262626;stroke-width:7.5;stroke-linecap:square;stroke-linejoin:miter;stroke-miterlimit:10;stroke-opacity:1;stroke-dasharray:none"
           d="m 3802.5,773.754 -32.55,0"
           inkscape:connector-curvature="0" /><path
           id="path4930"
           style="fill:none;stroke:#262626;stroke-width:7.5;stroke-linecap:square;stroke-linejoin:miter;stroke-miterlimit:10;stroke-opacity:1;stroke-dasharray:none"
           d="m 547.5,1202.5 32.551,0"
           inkscape:connector-curvature="0" /><path
           id="path4932"
           style="fill:none;stroke:#262626;stroke-width:7.5;stroke-linecap:square;stroke-linejoin:miter;stroke-miterlimit:10;stroke-opacity:1;stroke-dasharray:none"
           d="m 3802.5,1202.5 -32.55,0"
           inkscape:connector-curvature="0" /><path
           id="path4934"
           style="fill:none;stroke:#262626;stroke-width:7.5;stroke-linecap:square;stroke-linejoin:miter;stroke-miterlimit:10;stroke-opacity:1;stroke-dasharray:none"
           d="m 547.5,1631.25 32.551,0"
           inkscape:connector-curvature="0" /><path
           id="path4936"
           style="fill:none;stroke:#262626;stroke-width:7.5;stroke-linecap:square;stroke-linejoin:miter;stroke-miterlimit:10;stroke-opacity:1;stroke-dasharray:none"
           d="m 3802.5,1631.25 -32.55,0"
           inkscape:connector-curvature="0" /><path
           id="path4938"
           style="fill:none;stroke:#262626;stroke-width:7.5;stroke-linecap:square;stroke-linejoin:miter;stroke-miterlimit:10;stroke-opacity:1;stroke-dasharray:none"
           d="m 547.5,2060 32.551,0"
           inkscape:connector-curvature="0" /><path
           id="path4940"
           style="fill:none;stroke:#262626;stroke-width:7.5;stroke-linecap:square;stroke-linejoin:miter;stroke-miterlimit:10;stroke-opacity:1;stroke-dasharray:none"
           d="m 3802.5,2060 -32.55,0"
           inkscape:connector-curvature="0" /><path
           id="path4942"
           style="fill:none;stroke:#262626;stroke-width:7.5;stroke-linecap:square;stroke-linejoin:miter;stroke-miterlimit:10;stroke-opacity:1;stroke-dasharray:none"
           d="m 547.5,2488.75 32.551,0"
           inkscape:connector-curvature="0" /><path
           id="path4944"
           style="fill:none;stroke:#262626;stroke-width:7.5;stroke-linecap:square;stroke-linejoin:miter;stroke-miterlimit:10;stroke-opacity:1;stroke-dasharray:none"
           d="m 3802.5,2488.75 -32.55,0"
           inkscape:connector-curvature="0" /><path
           id="path4946"
           style="fill:none;stroke:#262626;stroke-width:7.5;stroke-linecap:square;stroke-linejoin:miter;stroke-miterlimit:10;stroke-opacity:1;stroke-dasharray:none"
           d="m 547.5,2917.5 32.551,0"
           inkscape:connector-curvature="0" /><path
           id="path4948"
           style="fill:none;stroke:#262626;stroke-width:7.5;stroke-linecap:square;stroke-linejoin:miter;stroke-miterlimit:10;stroke-opacity:1;stroke-dasharray:none"
           d="m 3802.5,2917.5 -32.55,0"
           inkscape:connector-curvature="0" /><g
           transform="scale(10,10)"
           id="g4950"><text
             id="text4952"
             transform="matrix(1,0,0,-1,39.9051,30.4547)"><tspan
               id="tspan4954"
               sodipodi:role="line"
               y="0"
               x="0 5.421"
               style="font-size:9.75px;font-variant:normal;font-weight:normal;writing-mode:lr-tb;fill:#262626;fill-opacity:1;fill-rule:nonzero;stroke:none;font-family:Helvetica;-inkscape-font-specification:Helvetica">14</tspan><tspan
               id="tspan4956"
               sodipodi:role="line"
               y="-42.874599"
               x="0 5.421"
               style="font-size:9.75px;font-variant:normal;font-weight:normal;writing-mode:lr-tb;fill:#262626;fill-opacity:1;fill-rule:nonzero;stroke:none;font-family:Helvetica;-inkscape-font-specification:Helvetica">16</tspan><tspan
               id="tspan4958"
               sodipodi:role="line"
               y="-85.75"
               x="0 5.421"
               style="font-size:9.75px;font-variant:normal;font-weight:normal;writing-mode:lr-tb;fill:#262626;fill-opacity:1;fill-rule:nonzero;stroke:none;font-family:Helvetica;-inkscape-font-specification:Helvetica">18</tspan><tspan
               id="tspan4960"
               sodipodi:role="line"
               y="-128.625"
               x="0 5.421"
               style="font-size:9.75px;font-variant:normal;font-weight:normal;writing-mode:lr-tb;fill:#262626;fill-opacity:1;fill-rule:nonzero;stroke:none;font-family:Helvetica;-inkscape-font-specification:Helvetica">20</tspan><tspan
               id="tspan4962"
               sodipodi:role="line"
               y="-171.5"
               x="0 5.421"
               style="font-size:9.75px;font-variant:normal;font-weight:normal;writing-mode:lr-tb;fill:#262626;fill-opacity:1;fill-rule:nonzero;stroke:none;font-family:Helvetica;-inkscape-font-specification:Helvetica">22</tspan><tspan
               id="tspan4964"
               sodipodi:role="line"
               y="-214.375"
               x="0 5.421"
               style="font-size:9.75px;font-variant:normal;font-weight:normal;writing-mode:lr-tb;fill:#262626;fill-opacity:1;fill-rule:nonzero;stroke:none;font-family:Helvetica;-inkscape-font-specification:Helvetica">24</tspan><tspan
               id="tspan4966"
               sodipodi:role="line"
               y="-257.25"
               x="0 5.421"
               style="font-size:9.75px;font-variant:normal;font-weight:normal;writing-mode:lr-tb;fill:#262626;fill-opacity:1;fill-rule:nonzero;stroke:none;font-family:Helvetica;-inkscape-font-specification:Helvetica">26</tspan></text>
</g><path
           id="path4968"
           style="fill:none;stroke:#0072bd;stroke-width:7.5;stroke-linecap:square;stroke-linejoin:miter;stroke-miterlimit:10;stroke-opacity:1;stroke-dasharray:none"
           d="m 547.5,559.371 3.254,1084.399 3.262,-12.4 3.257,12.55 3.262,25.79 3.254,31.84 3.262,34.06 3.258,34.05 3.254,32.91 3.261,31.29 3.254,29.37 3.266,27.21 3.254,24.98 3.261,22.69 3.254,20.41 3.266,18.15 3.254,15.92 3.254,13.74 3.261,11.61 3.258,9.55 3.262,7.58 3.254,5.66 3.262,3.86 3.257,2.11 3.254,0.46 3.262,-1.13 3.254,-2.61 3.266,-4 3.253,-5.28 3.262,-6.46 3.254,-7.52 3.258,-8.45 3.262,-9.33 3.254,-10.1 3.261,-10.78 3.258,-11.37 3.262,-11.86 3.254,-12.29 3.261,-12.59 3.258,-12.85 3.254,-13 3.262,-13.11 3.254,-13.11 3.265,-13.12 3.254,-13.02 3.262,-12.86 3.254,-12.7 3.258,-12.49 3.261,-12.24 3.254,-11.98 3.262,-11.7 3.258,-11.4 3.262,-11.09 3.254,-10.79 3.253,-10.48 3.262,-10.18 3.258,-9.89 3.262,-9.58 3.254,-9.31 3.261,-9.03 3.258,-8.76 3.262,-8.49 3.254,-8.25 3.254,-7.99 3.265,-7.77 3.254,-7.54 3.262,-7.32 3.254,-7.09 3.265,-6.89 3.254,-6.68 3.254,-6.49 3.262,-6.3 3.258,-6.12 3.261,-5.96 3.254,-5.79 3.262,-5.63 3.258,-5.48 3.254,-5.34 3.262,-5.21 3.253,-5.06 3.266,-4.92 3.254,-4.79 3.262,-4.66 3.254,-4.51 3.257,-4.37 3.262,-4.21 3.254,-4.04 3.262,-3.87 3.258,-3.66 3.261,-3.43 3.254,-3.2 3.262,-2.94 3.258,-2.66 3.254,-2.37 3.261,-2.06 3.254,-1.75 3.266,-1.44 3.254,-1.12 3.262,-0.83 3.253,-0.54 3.258,-0.27 3.262,-0.04 3.254,0.17 3.262,0.36 3.257,0.49 3.262,0.63 3.254,0.69 3.254,0.77 3.262,0.79 3.257,0.79 3.262,0.79 3.254,0.76 3.262,0.72 3.258,0.66 3.261,0.6 3.254,0.54 3.254,0.47 3.266,0.4 3.254,0.33 3.261,0.25 3.254,0.19 3.266,0.13 3.254,0.06 3.254,0 3.261,-0.04 3.258,-0.1 3.262,-0.13 3.254,-0.18 3.262,-0.21 3.257,-0.24 3.254,-0.26 3.262,-0.3 3.254,-0.3 3.266,-0.31 3.253,-0.32 3.262,-0.32 3.254,-0.32 3.266,-0.32 3.254,-0.31 3.249,-0.3 3.27,-0.29 3.25,-0.28 3.27,-0.26 3.25,-0.24 3.26,-0.22 3.26,-0.2 3.25,-0.17 3.26,-0.16 3.26,-0.13 3.26,-0.12 3.26,-0.09 3.26,-0.08 3.25,-0.05 3.26,-0.04 3.26,-0.02 3.26,0 3.26,0.01 3.26,0.02 3.26,0.04 3.25,0.03 3.26,0.06 3.26,0.06 3.26,0.06 3.26,0.07 3.25,0.06 3.26,0.07 3.26,0.07 3.26,0.07 3.26,0.05 3.25,0.07 3.27,0.05 3.25,0.05 3.26,0.05 3.26,0.04 3.26,0.03 3.26,0.03 3.25,0.03 3.26,0.01 3.26,0.02 3.26,0.01 3.25,0 3.27,0 3.25,0 3.26,-0.01 3.26,-0.02 3.25,-0.01 3.27,-0.01 3.25,-0.03 3.26,-0.02 3.26,-0.02 3.26,-0.02 3.26,-0.03 3.25,-0.03 3.26,-0.02 3.26,-0.02 3.26,-0.02 3.26,-0.03 3.26,-0.02 3.26,-0.01 3.25,-0.03 3.26,-0.01 3.26,-0.02 3.26,-0.01 3.26,-0.01 3.26,-0.01 3.25,-0.01 3.26,-0.01 3.26,-0.01 3.25,0 3.27,0 22.81,0 3.25,0 3.26,0 3.26,0.01 3.26,0 3.25,0.01 3.26,0 3.26,0.01 3.26,0 3.26,0 3.25,0 3.27,0.01 3.25,0 3.26,0.01 6.52,0 3.26,0 9.77,0 3.26,0.01 22.81,0 3.26,-0.01 19.55,0 3.25,0 19.56,0 3.25,-0.01 410.54,0 3.26,-0.01 52.13,0 3.26,0.02 3.26,0.06 3.26,0.28 3.25,0.89 3.26,2.47 3.26,5.8 3.26,11.59 3.26,18.62 3.26,25.17 3.26,30.62 3.25,34.88 3.26,38.08 3.26,40.4 3.26,42.03 3.26,43.06 3.25,43.6 3.26,43.79 3.26,43.66 3.25,43.19 3.27,42.45 3.25,41.45 3.27,40.25 3.25,38.89 3.26,37.41 3.26,35.87 3.26,34.27 3.26,32.65 3.25,31.05 3.26,29.45 3.26,27.91 3.26,26.42 3.25,24.95 3.27,23.55 3.25,22.2 3.26,20.93 3.26,19.69 3.25,18.53 3.27,17.42 3.25,16.36 3.26,15.34 3.26,14.39 3.26,13.47 3.26,12.62 3.25,11.79 3.26,11.01 3.26,10.28 3.26,9.59 3.26,8.95 3.25,8.3 3.27,7.73 3.25,7.17 3.26,6.66 3.26,6.14 3.26,5.69 3.26,5.21 3.26,4.83 3.25,4.43 3.26,4.11 3.26,3.76 3.25,3.48 3.27,3.18 3.25,2.91 3.27,2.64 3.25,2.42 3.25,2.17 3.27,2.01 3.25,1.8 3.27,1.64 3.25,1.48 3.26,1.36 3.26,1.2 3.25,1.09 3.26,0.96 3.26,0.87 3.26,0.77 3.26,0.66 3.26,0.59 3.26,0.49 3.26,0.42 3.25,0.35 3.26,0.29 3.26,0.23 3.26,0.19 3.26,0.13 3.25,0.08 3.26,0.03 3.26,-0.02 3.26,-0.05 3.26,-0.11 3.25,-0.13 3.27,-0.17 3.25,-0.19 3.26,-0.24 3.26,-0.26 3.25,-0.3 3.27,-0.34 3.25,-0.34 3.26,-0.38 3.26,-0.39 3.26,-0.44 3.25,-0.44 3.27,-0.48 3.25,-0.48 3.26,-0.5 3.26,-0.52 3.25,-0.54 3.27,-0.53 3.25,-0.56 3.26,-0.55 3.26,-0.58 3.26,-0.57 3.26,-0.6 3.25,-0.58 3.26,-0.6 3.26,-0.59 3.26,-0.61 3.26,-0.6 3.25,-0.61 3.27,-0.61 3.25,-0.6 3.26,-0.6 3.26,-0.61 3.26,-0.61 3.26,-0.6 3.26,-0.6 3.25,-0.59 3.26,-0.59 3.26,-0.59 3.26,-0.58 3.26,-0.58 3.25,-0.58 3.27,-0.57 3.25,-0.57 3.25,-0.55 3.27,-0.57 3.25,-0.54 3.27,-0.55 3.25,-0.54 3.26,-0.53 3.26,-0.53 3.25,-0.53 3.26,-0.52 3.26,-0.51 3.26,-0.51 3.26,-0.51 3.26,-0.49 3.25,-0.5 3.27,-0.49 3.25,-0.48 3.26,-0.48 3.26,-0.47 3.26,-0.47 3.26,-0.46 3.25,-0.47 3.26,-0.46 3.26,-0.45 3.26,-0.44 3.26,-0.44 3.25,-0.45 3.27,-0.43 3.25,-0.43 3.26,-0.43 3.26,-0.41 3.25,-0.42 3.27,-0.42 3.25,-0.4 3.26,-0.41 3.26,-0.4 3.26,-0.39 3.25,-0.4 3.26,-0.39 3.26,-0.38 3.26,-0.39 3.26,-0.37 3.25,-0.38 3.27,-0.36 3.25,-0.36 3.27,-0.37 3.25,-0.35 3.26,-0.36 3.26,-0.35 3.25,-0.34 3.26,-0.35 3.26,-0.33 3.26,-0.33 3.26,-0.34 3.25,-0.32 3.26,-0.33 3.26,-0.32 3.26,-0.31 3.26,-0.31 3.26,-0.31 3.26,-0.31 3.25,-0.3 3.26,-0.3 3.26,-0.29 3.26,-0.29 3.26,-0.29 3.26,-0.28 3.25,-0.29 3.27,-0.28 3.25,-0.27 3.25,-0.27 3.27,-0.26 3.25,-0.27 3.27,-0.27 3.25,-0.25 3.26,-0.26 3.26,-0.25 3.25,-0.25 3.26,-0.25 3.26,-0.24 3.26,-0.25 3.26,-0.23 3.26,-0.24 3.25,-0.23 3.26,-0.23 3.26,-0.23 3.26,-0.23 3.26,-0.22 3.26,-0.22 3.26,-0.22 3.25,-0.21 3.26,-0.22 3.26,-0.21 3.26,-0.2 3.26,-0.21 3.25,-0.2 3.27,-0.2 3.25,-0.2 3.26,-0.19 3.26,-0.2 3.25,-0.2 3.27,-0.18 3.25,-0.19 3.26,-0.19 3.26,-0.18 3.26,-0.18 3.26,-0.18 3.25,-0.18 3.26,-0.17 3.26,-0.17 3.26,-0.18 3.25,-0.17 3.27,-0.16 3.25,-0.17 3.26,-0.16 3.26,-0.17 3.25,-0.15 3.27,-0.16 3.25,-0.16 3.26,-0.15 3.26,-0.16 3.26,-0.15 3.26,-0.15 3.25,-0.15 3.26,-0.14 3.26,-0.14 3.26,-0.14 3.26,-0.15 3.26,-0.14 3.26,-0.14 3.25,-0.14 3.26,-0.13 3.26,-0.13 3.26,-0.14 3.26,-0.12 3.26,-0.14 3.25,-0.13 3.27,-0.12 3.25,-0.12 3.25,-0.13 3.27,-0.12 3.25,-0.12 3.27,-0.12 3.25,-0.12 3.26,-0.11 3.26,-0.12 3.25,-0.12 3.27,-0.11 3.25,-0.11 3.26,-0.11 3.26,-0.11 3.26,-0.11 3.25,-0.11 3.26,-0.1 3.26,-0.11 3.26,-0.1 3.26,-0.1 3.26,-0.11 3.26,-0.1 3.25,-0.09 3.26,-0.11 3.26,-0.1 3.26,-0.09 3.26,-0.09 3.25,-0.1 3.26,-0.09 3.26,-0.1 3.26,-0.09 3.26,-0.09 3.25,-0.09 3.27,-0.09 3.25,-0.08 3.26,-0.09 3.26,-0.08 3.26,-0.09 3.26,-0.09 3.25,-0.08 3.26,-0.08 3.26,-0.08 3.26,-0.09 3.25,-0.08 3.27,-0.07 3.25,-0.09 3.27,-0.07 3.25,-0.08 3.25,-0.08 3.27,-0.07 3.25,-0.08 3.26,-0.08 3.26,-0.06 3.26,-0.08 3.26,-0.07 3.25,-0.07 3.26,-0.08 3.26,-0.06 3.26,-0.07 3.26,-0.07 3.26,-0.07 3.26,-0.06 3.25,-0.07 3.26,-0.07 3.26,-0.06 3.26,-0.06 3.26,-0.07 3.26,-0.06 3.25,-0.07 3.26,-0.06 3.26,-0.06 3.26,-0.07 3.26,-0.06 3.25,-0.06 3.27,-0.06 3.25,-0.06 3.26,-0.05 3.26,-0.06 3.25,-0.06 3.27,-0.06 3.25,-0.05 3.26,-0.06 3.26,-0.06 3.26,-0.05 3.25,-0.06 3.26,-0.05 3.26,-0.05 3.26,-0.06 3.26,-0.05 3.25,-0.05 3.27,-0.05 3.25,-0.05 3.26,-0.06 3.26,-0.05 3.26,-0.05 3.26,-0.05 3.25,-0.05 3.26,-0.04 3.26,-0.06 3.26,-0.04 3.26,-0.05 3.25,-0.05 3.27,-0.05 3.25,-0.04 3.26,-0.05 3.26,-0.05 3.26,-0.04 3.26,-0.05 3.25,-0.04 3.26,-0.05 3.26,-0.04 3.26,-0.04 3.25,-0.05 3.27,-0.04 3.25,-0.05 3.26,-0.04 3.26,-0.04 3.25,-0.04 3.27,-0.04 3.25,-0.05 3.27,-0.03 3.25,-0.05 3.26,-0.03 3.26,-0.05 3.25,-0.04 3.26,-0.03 3.26,-0.05 3.26,-0.04 3.26,-0.04 3.26,-0.04 3.25,-0.2 3.26,-1.44 3.26,-7.54 3.26,-28.06 3.26,-56.97 3.26,-80.32 3.26,-93.48 3.25,-99.41 3.26,-101.69 3.26,-102.46 3.26,-103.59 3.26,-107.41 3.25,-116.58 3.27,-141.99 3.25,-168.48 3.26,-137.37 3.26,-99.73 3.25,-68.7 3.27,-41.85 3.25,-18.28 3.26,1.58 3.26,16.89 3.26,27.59 3.25,33.8 3.26,36.5 3.26,37.05 3.26,36.25 3.26,34.69 3.25,32.67 3.27,30.34 3.25,27.85 3.26,25.37 3.26,22.89 3.26,20.53 3.26,18.18 3.25,16.07 3.26,13.95 3.26,12.07 3.26,10.29 3.26,8.74 3.25,7.21 3.27,5.83 3.25,4.52 3.26,3.42 3.26,2.35 3.26,1.48 3.26,0.6 3.25,-0.09 3.26,-0.76 3.26,-1.41 3.26,-1.99 3.26,-2.51 3.26,-2.95 3.25,-3.25 3.26,-3.51 3.26,-3.69 3.25,-3.84 3.27,-4.01 3.25,-4.14 3.27,-4.25 3.25,-4.3 3.25,-4.23 3.27,-4.14 3.25,-4.05 3.26,-3.91 3.26,-3.8 3.26,-3.66 3.26,-3.49 3.26,-3.3 3.25,-3.06 3.26,-2.82 3.26,-2.58 3.26,-2.35 3.26,-2.13 3.26,-1.91 3.26,-1.7 3.25,-1.47 3.26,-1.28 3.26,-1.1 3.26,-0.93 3.26,-0.76 3.25,-0.63 3.27,-0.49 3.25,-0.39 3.25,-0.29 3.27,-0.22 3.25,-0.13 3.27,-0.08 3.25,-0.03 3.26,0 3.26,0.02 3.26,0.05 3.26,0.05 3.25,0.06 3.26,0.07 3.26,0.07 3.26,0.07 3.25,0.07 3.27,0.05 3.25,0.05 3.26,0.04 3.26,0.04 3.26,0.01 3.26,0.01 3.25,0 3.26,-0.01 3.26,-0.02 3.26,-0.03 3.26,-0.03 3.25,-0.04 3.26,-0.05 3.26,-0.06 3.26,-0.05 3.26,-0.06 3.26,-0.07 3.26,-0.05 3.25,-0.07 3.26,-0.07 3.26,-0.07 3.26,-0.06 3.26,-0.07 3.26,-0.05 3.25,-0.06 3.26,-0.06 3.26,-0.05 3.25,-0.05 3.27,-0.03 3.25,-0.04 3.27,-0.04 3.25,-0.02 3.25,-0.02 3.27,-0.02 3.25,-0.02 3.26,-0.02 3.26,0 13.03,0 3.26,0 3.26,0.01 3.26,0.01 3.26,0.01 3.26,0.01 3.26,0.01 3.25,0.02 3.26,0 3.26,0.02 3.26,0.01 3.26,0.01 3.25,0.01 3.26,0.01 3.26,0.01 3.26,0.01 3.26,0.01 3.25,0.01 3.27,0 3.25,0.01 3.26,0 3.26,0.01 3.25,0 3.27,0.01 32.57,0 3.27,-0.01 6.51,0 3.26,-0.01 3.26,0 3.26,0 6.51,0 3.26,-0.01 6.52,0 3.25,-0.01 9.78,0 3.26,0 22.8,0 3.27,-0.01 6.52,0 3.25,0.01"
           inkscape:connector-curvature="0" /><g
           transform="scale(10,10)"
           id="g4970"><text
             id="text4972"
             transform="matrix(1,0,0,-1,189.375,297.34)"><tspan
               id="tspan4974"
               sodipodi:role="line"
               y="0"
               x="0 8.1225004 14.3775 21.251249 24.37875 31.252501 37.5075 40.634998 44.381248 52.50375"
               style="font-size:11.25px;font-variant:normal;font-weight:bold;writing-mode:lr-tb;fill:#000000;fill-opacity:1;fill-rule:nonzero;stroke:none;font-family:Helvetica;-inkscape-font-specification:Helvetica-Bold">Radius (R)</tspan></text>
</g></g></g><path
       sodipodi:type="arc"
       style="fill:#ff0000;fill-opacity:1;stroke:#000000;stroke-width:0.6448819;stroke-miterlimit:4;stroke-opacity:1;stroke-dasharray:none"
       id="path3177"
       sodipodi:cx="523.18683"
       sodipodi:cy="274.13461"
       sodipodi:rx="7.9120879"
       sodipodi:ry="8.9010992"
       d="m 531.09892,274.13461 a 7.9120879,8.9010992 0 1 1 -15.82418,0 7.9120879,8.9010992 0 1 1 15.82418,0 z"
       transform="matrix(0.38947975,0,0,-0.34620421,-53.228577,338.02562)" /><path
       sodipodi:type="arc"
       style="fill:#0000ff;fill-opacity:1;stroke:#000000;stroke-width:0.6448819;stroke-miterlimit:4;stroke-opacity:1;stroke-dasharray:none"
       id="path3177-8"
       sodipodi:cx="523.18683"
       sodipodi:cy="274.13461"
       sodipodi:rx="7.9120879"
       sodipodi:ry="8.9010992"
       d="m 531.09892,274.13461 a 7.9120879,8.9010992 0 1 1 -15.82418,0 7.9120879,8.9010992 0 1 1 15.82418,0 z"
       transform="matrix(0.38947975,0,0,-0.34620421,-9.8579362,338.05317)" /><path
       sodipodi:type="arc"
       style="fill:#0000ff;fill-opacity:1;stroke:#000000;stroke-width:0.6448819;stroke-miterlimit:4;stroke-opacity:1;stroke-dasharray:none"
       id="path3177-8-8"
       sodipodi:cx="523.18683"
       sodipodi:cy="274.13461"
       sodipodi:rx="7.9120879"
       sodipodi:ry="8.9010992"
       d="m 531.09892,274.13461 a 7.9120879,8.9010992 0 1 1 -15.82418,0 7.9120879,8.9010992 0 1 1 15.82418,0 z"
       transform="matrix(0.38947975,0,0,-0.34620421,75.755662,460.3511)" /><path
       style="fill:none;stroke:#23792e;stroke-width:0.75348282;stroke-linecap:butt;stroke-linejoin:miter;stroke-miterlimit:4;stroke-opacity:1;stroke-dasharray:none"
       d="m 361.81074,240.45955 8.67414,63.85522"
       id="path4213"
       inkscape:connector-curvature="0" /><path
       sodipodi:type="arc"
       style="fill:#008000;fill-opacity:1;stroke:#000000;stroke-width:0.6448819;stroke-miterlimit:4;stroke-opacity:1;stroke-dasharray:none"
       id="path3177-8-8-2"
       sodipodi:cx="523.18683"
       sodipodi:cy="274.13461"
       sodipodi:rx="7.9120879"
       sodipodi:ry="8.9010992"
       d="m 531.09892,274.13461 a 7.9120879,8.9010992 0 1 1 -15.82418,0 7.9120879,8.9010992 0 1 1 15.82418,0 z"
       transform="matrix(0.38947975,0,0,-0.34620421,158.20306,331.5792)" /><path
       sodipodi:type="arc"
       style="fill:#008000;fill-opacity:1;stroke:#000000;stroke-width:0.6448819;stroke-miterlimit:4;stroke-opacity:1;stroke-dasharray:none"
       id="path3177-8-8-2-2"
       sodipodi:cx="523.18683"
       sodipodi:cy="274.13461"
       sodipodi:rx="7.9120879"
       sodipodi:ry="8.9010992"
       d="m 531.09892,274.13461 a 7.9120879,8.9010992 0 1 1 -15.82418,0 7.9120879,8.9010992 0 1 1 15.82418,0 z"
       transform="matrix(0.38947975,0,0,-0.34620421,204.94566,338.0286)" /><path
       style="fill:#ff0000;fill-opacity:1;stroke:#ef0000;stroke-width:0.70454377;stroke-linecap:butt;stroke-linejoin:miter;stroke-miterlimit:4;stroke-opacity:1;stroke-dasharray:0.70454374, 0.70454374;stroke-dashoffset:0"
       d="m 151.2075,242.79361 0,-149.495533"
       id="path3251"
       inkscape:connector-curvature="0" /><path
       style="fill:#0000ff;fill-opacity:1;stroke:#101dce;stroke-width:0.71288109;stroke-linecap:butt;stroke-linejoin:miter;stroke-miterlimit:4;stroke-opacity:1;stroke-dasharray:0.71288113, 0.71288113;stroke-dashoffset:0"
       d="m 193.91274,240.06501 0,-146.397603"
       id="path3251-8"
       inkscape:connector-curvature="0" /><path
       style="fill:#0000ff;fill-opacity:1;stroke:#101dce;stroke-width:0.69571358;stroke-linecap:butt;stroke-linejoin:miter;stroke-miterlimit:4;stroke-opacity:1;stroke-dasharray:0.69571354, 0.69571354;stroke-dashoffset:0"
       d="m 279.53974,365.02005 0,-270.451767"
       id="path3251-8-9"
       inkscape:connector-curvature="0" /><path
       style="fill:#008000;fill-opacity:1;stroke:#0c7d1c;stroke-width:0.69780397;stroke-linecap:butt;stroke-linejoin:miter;stroke-miterlimit:4;stroke-opacity:1;stroke-dasharray:0.697804, 0.697804;stroke-dashoffset:0"
       d="m 361.97374,233.57311 0,-140.270564"
       id="path3251-8-1"
       inkscape:connector-curvature="0" /><path
       style="fill:#008000;fill-opacity:1;stroke:#167828;stroke-width:0.81222343;stroke-linecap:butt;stroke-linejoin:miter;stroke-miterlimit:4;stroke-opacity:1;stroke-dasharray:0.81222338, 0.81222338;stroke-dashoffset:0"
       d="m 692.04518,328.27482 0,-190.04248"
       id="path3251-8-1-0"
       inkscape:connector-curvature="0" /><rect
       style="fill:#ffffff;fill-opacity:1;stroke:#167828;stroke-width:0.94704938;stroke-miterlimit:4;stroke-opacity:1;stroke-dasharray:none;stroke-dashoffset:0"
       id="rect4113"
       width="79.052956"
       height="11.052951"
       x="332.56235"
       y="304.23721" /><text
       xml:space="preserve"
       style="font-size:9.60000038px;font-style:normal;font-variant:normal;font-weight:normal;font-stretch:normal;text-align:start;line-height:125%;letter-spacing:0px;word-spacing:0px;writing-mode:lr-tb;text-anchor:start;fill:#000000;fill-opacity:1;stroke:none;font-family:Arial;-inkscape-font-specification:Arial"
       x="333.01147"
       y="-307.27933"
       id="text4115"
       sodipodi:linespacing="125%"
       transform="scale(1,-1)"><tspan
         sodipodi:role="line"
         id="tspan4117"
         x="333.01147"
         y="-307.27933">Average Value (A)</tspan></text>
<rect
       style="fill:#ffffff;fill-opacity:1;stroke:#0011fd;stroke-width:0.94704944;stroke-miterlimit:4;stroke-opacity:1;stroke-dasharray:none;stroke-dashoffset:0"
       id="rect4113-9"
       width="79.052956"
       height="11.052951"
       x="161.92352"
       y="362.66873" /><text
       xml:space="preserve"
       style="font-size:9.60000038px;font-style:normal;font-variant:normal;font-weight:normal;font-stretch:normal;text-align:start;line-height:125%;letter-spacing:0px;word-spacing:0px;writing-mode:lr-tb;text-anchor:start;fill:#000000;fill-opacity:1;stroke:none;font-family:Arial;-inkscape-font-specification:Arial"
       x="165.87656"
       y="-365.71085"
       id="text4115-9"
       sodipodi:linespacing="125%"
       transform="scale(1,-1)"><tspan
         sodipodi:role="line"
         id="tspan4117-5"
         x="165.87656"
         y="-365.71085">Chaning rate (R)</tspan></text>
<rect
       style="fill:#ffffff;fill-opacity:1;stroke:#fd000b;stroke-width:0.94704908;stroke-miterlimit:4;stroke-opacity:1;stroke-dasharray:none;stroke-dashoffset:0"
       id="rect4113-9-1"
       width="79.05294"
       height="11.052951"
       x="96.823532"
       y="274.11859"
       inkscape:transform-center-x="31.798742"
       inkscape:transform-center-y="36.463769" /><text
       xml:space="preserve"
       style="font-size:11.19999981px;font-style:normal;font-variant:normal;font-weight:normal;font-stretch:normal;text-align:start;line-height:125%;letter-spacing:0px;word-spacing:0px;writing-mode:lr-tb;text-anchor:start;fill:#000000;fill-opacity:1;stroke:none;font-family:Arial;-inkscape-font-specification:Arial"
       x="106.24688"
       y="-277.16071"
       id="text4115-9-4"
       sodipodi:linespacing="125%"
       transform="scale(1,-1)"
       inkscape:transform-center-x="52.791709"
       inkscape:transform-center-y="56.34179"><tspan
         style="font-size:9.60000038px"
         sodipodi:role="line"
         id="tspan4117-5-8"
         x="106.24688"
         y="-277.16071">Time point (P)</tspan></text>
<path
       style="fill:none;stroke:#1c2bdb;stroke-width:0.37926117px;stroke-linecap:butt;stroke-linejoin:miter;stroke-opacity:1"
       d="M 198.24553,363.44114 193.91274,246.22821"
       id="path4205"
       inkscape:connector-curvature="0" /><path
       style="fill:none;stroke:#e71c1c;stroke-width:0.80000001px;stroke-linecap:butt;stroke-linejoin:miter;stroke-opacity:1"
       d="M 142.97986,275.25205 151.37,242.79606"
       id="path4209"
       inkscape:connector-curvature="0" /><path
       style="fill:none;stroke:#23792e;stroke-width:0.79817748px;stroke-linecap:butt;stroke-linejoin:miter;stroke-opacity:1"
       d="m 408.71634,246.20364 -19.5036,58.80698"
       id="path4211"
       inkscape:connector-curvature="0" /><rect
       style="fill:#ffffff;fill-opacity:1;stroke:#fd000b;stroke-width:0.85014921;stroke-miterlimit:4;stroke-opacity:1;stroke-dasharray:none;stroke-dashoffset:0"
       id="rect4113-9-1-5"
       width="63.149849"
       height="11.149851"
       x="88.057648"
       y="81.411324" /><text
       xml:space="preserve"
       style="font-size:9.60000038px;font-style:normal;font-variant:normal;font-weight:normal;font-stretch:normal;text-align:start;line-height:125%;letter-spacing:0px;word-spacing:0px;writing-mode:lr-tb;text-anchor:start;fill:#000000;fill-opacity:1;stroke:none;font-family:Arial;-inkscape-font-specification:Arial"
       x="93.97554"
       y="-84.490158"
       id="text4115-9-4-6"
       sodipodi:linespacing="125%"
       transform="scale(1,-1)"><tspan
         sodipodi:role="line"
         id="tspan4117-5-8-3"
         x="93.97554"
         y="-84.490158">Time point 1</tspan></text>
<rect
       style="fill:#ffffff;fill-opacity:1;stroke:#0011fd;stroke-width:0.85014886;stroke-miterlimit:4;stroke-opacity:1;stroke-dasharray:none;stroke-dashoffset:0"
       id="rect4113-9-4"
       width="63.149853"
       height="11.149851"
       x="158.79327"
       y="81.228584" /><rect
       style="fill:#ffffff;fill-opacity:1;stroke:#0011fd;stroke-width:0.85014892;stroke-miterlimit:4;stroke-opacity:1;stroke-dasharray:none;stroke-dashoffset:0"
       id="rect4113-9-43"
       width="63.149853"
       height="11.149851"
       x="232.80856"
       y="81.787216" /><text
       xml:space="preserve"
       style="font-size:9.60000038px;font-style:normal;font-variant:normal;font-weight:normal;font-stretch:normal;text-align:start;line-height:125%;letter-spacing:0px;word-spacing:0px;writing-mode:lr-tb;text-anchor:start;fill:#000000;fill-opacity:1;stroke:none;font-family:Arial;-inkscape-font-specification:Arial"
       x="164.71117"
       y="-84.307419"
       id="text4115-9-0"
       sodipodi:linespacing="125%"
       transform="scale(1,-1)"><tspan
         sodipodi:role="line"
         id="tspan4117-5-0"
         x="164.71117"
         y="-84.307419">Time point 1</tspan></text>
<text
       xml:space="preserve"
       style="font-size:9.60000038px;font-style:normal;font-variant:normal;font-weight:normal;font-stretch:normal;text-align:start;line-height:125%;letter-spacing:0px;word-spacing:0px;writing-mode:lr-tb;text-anchor:start;fill:#000000;fill-opacity:1;stroke:none;font-family:Arial;-inkscape-font-specification:Arial"
       x="236.51161"
       y="-84.866051"
       id="text4115-9-45"
       sodipodi:linespacing="125%"
       transform="scale(1,-1)"><tspan
         sodipodi:role="line"
         id="tspan4117-5-05"
         x="236.51161"
         y="-84.866051">Time point 1  </tspan></text>
<rect
       style="fill:#ffffff;fill-opacity:1;stroke:#167828;stroke-width:0.85014921;stroke-miterlimit:4;stroke-opacity:1;stroke-dasharray:none;stroke-dashoffset:0"
       id="rect4113-4"
       width="63.149853"
       height="11.149851"
       x="300.53812"
       y="81.272728" /><text
       xml:space="preserve"
       style="font-size:9.60000038px;font-style:normal;font-variant:normal;font-weight:normal;font-stretch:normal;text-align:start;line-height:125%;letter-spacing:0px;word-spacing:0px;writing-mode:lr-tb;text-anchor:start;fill:#000000;fill-opacity:1;stroke:none;font-family:Arial;-inkscape-font-specification:Arial"
       x="306.45602"
       y="-84.351555"
       id="text4115-3"
       sodipodi:linespacing="125%"
       transform="scale(1,-1)"><tspan
         sodipodi:role="line"
         id="tspan4117-4"
         x="306.45602"
         y="-84.351555">Time point 1</tspan></text>
<rect
       style="fill:#ffffff;fill-opacity:1;stroke:#167828;stroke-width:0.85014927;stroke-miterlimit:4;stroke-opacity:1;stroke-dasharray:none;stroke-dashoffset:0"
       id="rect4113-4-0"
       width="63.149853"
       height="11.149851"
       x="366.42508"
       y="81.411324" /><text
       xml:space="preserve"
       style="font-size:9.60000038px;font-style:normal;font-variant:normal;font-weight:normal;font-stretch:normal;text-align:start;line-height:125%;letter-spacing:0px;word-spacing:0px;writing-mode:lr-tb;text-anchor:start;fill:#000000;fill-opacity:1;stroke:none;font-family:Arial;-inkscape-font-specification:Arial"
       x="371.71484"
       y="-84.490158"
       id="text4115-3-5"
       sodipodi:linespacing="125%"
       transform="scale(1,-1)"><tspan
         sodipodi:role="line"
         id="tspan4117-4-5"
         x="371.71484"
         y="-84.490158">Time point 2</tspan></text>
<path
       style="fill:#676fe4;fill-opacity:1;stroke:#061dbb;stroke-width:0.6006819px;stroke-linecap:butt;stroke-linejoin:miter;stroke-opacity:1"
       d="m 240.97648,368.96861 38.40026,-3.92706"
       id="path5075"
       inkscape:connector-curvature="0" /><path
       style="fill:#008000;fill-opacity:1;stroke:#0c7d1c;stroke-width:0.71367121;stroke-linecap:butt;stroke-linejoin:miter;stroke-miterlimit:4;stroke-opacity:1;stroke-dasharray:0.71367122, 0.71367122;stroke-dashoffset:0"
       d="m 408.71634,240.02431 0,-146.722256"
       id="path3251-8-1-5"
       inkscape:connector-curvature="0" /></g></svg>